<svg width="210" height="39" viewBox="0 0 210 39" fill="none" xmlns="http://www.w3.org/2000/svg">
<g clip-path="url(#clip0_286_13274)">
<path fill-rule="evenodd" clip-rule="evenodd" d="M30.5695 27.9944C30.6293 28.1075 30.6547 28.273 30.5886 28.3826C30.5225 28.4922 30.3747 28.5304 30.2463 28.5304H25.405C25.2356 28.5304 25.0871 28.4293 25.0111 28.278C24.416 27.0977 21.7969 21.5 20.1428 18.2165C19.866 17.6674 19.6602 17.4206 19.1259 17.4199C18.5916 17.4195 18.3784 17.6384 18.1076 18.214C16.4573 21.7185 13.8022 27.0634 13.2128 28.2797C13.1392 28.4314 12.989 28.5304 12.8207 28.5304H8.08855C7.94923 28.5304 7.77562 28.5021 7.70349 28.3826C7.63171 28.2631 7.67237 28.0704 7.73743 27.947C9.11962 25.3318 14.7506 14.6799 16.37 11.6171C16.6348 11.1161 16.951 10.79 17.6359 10.79H20.6262C21.3387 10.79 21.6788 11.1298 21.9518 11.6521C23.5882 14.7789 29.2372 25.4722 30.5695 27.9944Z" fill="white"/>
<path fill-rule="evenodd" clip-rule="evenodd" d="M19.1406 0.150879C29.7045 0.150879 38.2808 8.72723 38.2808 19.2911C38.2808 29.855 29.7045 38.4317 19.1406 38.4317C8.57671 38.4317 0 29.855 0 19.2911C0 8.72723 8.57671 0.150879 19.1406 0.150879ZM16.3798 8.06779C16.2341 7.85245 14.9675 6.16829 12.1434 6.23123C5.35726 6.38257 1.89525 13.2079 1.89383 19.2239C1.89171 27.5931 8.33415 36.5216 19.2948 36.4994C30.2724 36.4767 36.3661 27.0875 36.3661 19.2717C36.3661 13.1004 32.978 6.1987 26.4769 6.24962C23.3377 6.27437 22.0111 7.9663 21.8541 8.17068C21.5765 8.53205 21.3099 8.75552 20.7431 8.75552H17.5257C16.8964 8.75552 16.6658 8.48962 16.3798 8.06779Z" fill="white"/>
<path d="M47.2635 34.5181V24.6481H51.5475C52.6302 24.6481 53.4655 24.9187 54.0535 25.4601C54.6415 26.0014 54.9355 26.7574 54.9355 27.7281C54.9355 28.6987 54.6415 29.4594 54.0535 30.0101C53.4655 30.5514 52.6302 30.8221 51.5475 30.8221H49.0555V34.5181H47.2635ZM49.0555 29.4081H51.2675C52.5555 29.4081 53.1995 28.8481 53.1995 27.7281C53.1995 26.6174 52.5555 26.0621 51.2675 26.0621H49.0555V29.4081ZM58.8549 34.6581C58.1456 34.6581 57.5296 34.5134 57.0069 34.2241C56.4842 33.9347 56.0782 33.5241 55.7889 32.9921C55.4996 32.4507 55.3549 31.8161 55.3549 31.0881C55.3549 30.3601 55.4996 29.7301 55.7889 29.1981C56.0782 28.6661 56.4842 28.2554 57.0069 27.9661C57.5296 27.6767 58.1456 27.5321 58.8549 27.5321C59.5642 27.5321 60.1802 27.6767 60.7029 27.9661C61.2256 28.2554 61.6316 28.6661 61.9209 29.1981C62.2102 29.7301 62.3549 30.3601 62.3549 31.0881C62.3549 31.8161 62.2102 32.4507 61.9209 32.9921C61.6316 33.5241 61.2256 33.9347 60.7029 34.2241C60.1802 34.5134 59.5642 34.6581 58.8549 34.6581ZM58.8549 33.3281C59.3776 33.3281 59.7976 33.1414 60.1149 32.7681C60.4322 32.3854 60.5909 31.8254 60.5909 31.0881C60.5909 30.3414 60.4322 29.7861 60.1149 29.4221C59.7976 29.0487 59.3776 28.8621 58.8549 28.8621C58.3322 28.8621 57.9122 29.0487 57.5949 29.4221C57.2776 29.7861 57.1189 30.3414 57.1189 31.0881C57.1189 31.8254 57.2776 32.3854 57.5949 32.7681C57.9122 33.1414 58.3322 33.3281 58.8549 33.3281ZM66.0393 34.6581C65.2273 34.6581 64.6253 34.4387 64.2333 34.0001C63.8506 33.5521 63.6593 32.8987 63.6593 32.0401V24.6481H65.4093V31.9561C65.4093 32.7961 65.764 33.2161 66.4733 33.2161C66.576 33.2161 66.6786 33.2114 66.7813 33.2021C66.884 33.1927 66.982 33.1741 67.0753 33.1461L67.0473 34.5321C66.7113 34.6161 66.3753 34.6581 66.0393 34.6581ZM70.244 34.6581C69.7493 34.6581 69.306 34.5647 68.914 34.3781C68.5313 34.1821 68.228 33.9207 68.004 33.5941C67.7893 33.2674 67.682 32.8987 67.682 32.4881C67.682 31.9841 67.8127 31.5874 68.074 31.2981C68.3353 30.9994 68.76 30.7847 69.348 30.6541C69.936 30.5234 70.7247 30.4581 71.714 30.4581H72.204V30.1641C72.204 29.6974 72.1013 29.3614 71.896 29.1561C71.6907 28.9507 71.3453 28.8481 70.86 28.8481C70.4773 28.8481 70.0853 28.9087 69.684 29.0301C69.2827 29.1421 68.8767 29.3194 68.466 29.5621L67.962 28.3721C68.2047 28.2041 68.4893 28.0594 68.816 27.9381C69.152 27.8074 69.502 27.7094 69.866 27.6441C70.2393 27.5694 70.5893 27.5321 70.916 27.5321C71.9147 27.5321 72.6567 27.7654 73.142 28.2321C73.6273 28.6894 73.87 29.4034 73.87 30.3741V34.5181H72.232V33.4261C72.0733 33.8087 71.8213 34.1121 71.476 34.3361C71.1307 34.5507 70.72 34.6581 70.244 34.6581ZM70.608 33.4541C71.0653 33.4541 71.4433 33.2954 71.742 32.9781C72.05 32.6607 72.204 32.2594 72.204 31.7741V31.4661H71.728C70.8507 31.4661 70.2393 31.5361 69.894 31.6761C69.558 31.8067 69.39 32.0494 69.39 32.4041C69.39 32.7121 69.4973 32.9641 69.712 33.1601C69.9267 33.3561 70.2253 33.4541 70.608 33.4541ZM75.5063 34.5181V27.6721H77.2143V28.8761C77.5503 28.0641 78.2689 27.6161 79.3703 27.5321L79.9023 27.4901L80.0143 28.9741L79.0063 29.0721C77.8583 29.1841 77.2843 29.7721 77.2843 30.8361V34.5181H75.5063ZM81.0167 34.5181V24.6481H84.6847C86.3367 24.6481 87.6107 25.0727 88.5067 25.9221C89.412 26.7714 89.8647 27.9894 89.8647 29.5761C89.8647 31.1534 89.412 32.3714 88.5067 33.2301C87.6107 34.0887 86.3367 34.5181 84.6847 34.5181H81.0167ZM82.8087 33.0341H84.5727C86.85 33.0341 87.9887 31.8814 87.9887 29.5761C87.9887 27.2801 86.85 26.1321 84.5727 26.1321H82.8087V33.0341ZM94.7467 34.6581C93.9721 34.6581 93.3047 34.5134 92.7447 34.2241C92.1847 33.9347 91.7507 33.5241 91.4427 32.9921C91.1441 32.4601 90.9947 31.8301 90.9947 31.1021C90.9947 30.3927 91.1394 29.7721 91.4287 29.2401C91.7274 28.7081 92.1334 28.2927 92.6467 27.9941C93.1694 27.6861 93.7621 27.5321 94.4247 27.5321C95.3954 27.5321 96.1607 27.8401 96.7207 28.4561C97.2901 29.0721 97.5747 29.9121 97.5747 30.9761V31.4941H92.6747C92.8054 32.7167 93.5054 33.3281 94.7747 33.3281C95.1574 33.3281 95.5401 33.2721 95.9227 33.1601C96.3054 33.0387 96.6554 32.8521 96.9727 32.6001L97.4627 33.7761C97.1361 34.0467 96.7254 34.2614 96.2307 34.4201C95.7361 34.5787 95.2414 34.6581 94.7467 34.6581ZM94.4947 28.7221C93.9814 28.7221 93.5661 28.8807 93.2487 29.1981C92.9314 29.5154 92.7401 29.9447 92.6747 30.4861H96.1187C96.0814 29.9167 95.9227 29.4827 95.6427 29.1841C95.3721 28.8761 94.9894 28.7221 94.4947 28.7221ZM101.327 34.6581C100.748 34.6581 100.207 34.5881 99.7026 34.4481C99.1986 34.3081 98.7786 34.1074 98.4426 33.8461L98.8906 32.6981C99.236 32.9314 99.6233 33.1134 100.053 33.2441C100.482 33.3654 100.911 33.4261 101.341 33.4261C101.789 33.4261 102.12 33.3514 102.335 33.2021C102.559 33.0434 102.671 32.8381 102.671 32.5861C102.671 32.1941 102.381 31.9421 101.803 31.8301L100.403 31.5641C99.2173 31.3401 98.6246 30.7241 98.6246 29.7161C98.6246 29.2681 98.746 28.8807 98.9886 28.5541C99.2406 28.2274 99.586 27.9754 100.025 27.7981C100.463 27.6207 100.967 27.5321 101.537 27.5321C102.022 27.5321 102.489 27.6021 102.937 27.7421C103.385 27.8727 103.767 28.0734 104.085 28.3441L103.609 29.4921C103.338 29.2681 103.011 29.0907 102.629 28.9601C102.255 28.8294 101.896 28.7641 101.551 28.7641C101.093 28.7641 100.753 28.8434 100.529 29.0021C100.314 29.1607 100.207 29.3707 100.207 29.6321C100.207 30.0427 100.473 30.2947 101.005 30.3881L102.405 30.6541C103.011 30.7661 103.469 30.9714 103.777 31.2701C104.094 31.5687 104.253 31.9701 104.253 32.4741C104.253 33.1554 103.987 33.6921 103.455 34.0841C102.923 34.4667 102.213 34.6581 101.327 34.6581ZM105.405 26.2021V24.4941H107.365V26.2021H105.405ZM105.517 34.5181V27.6721H107.267V34.5181H105.517ZM112.137 37.1781C111.502 37.1781 110.905 37.1034 110.345 36.9541C109.794 36.8141 109.309 36.5947 108.889 36.2961L109.393 35.0781C109.785 35.3394 110.205 35.5307 110.653 35.6521C111.101 35.7827 111.549 35.8481 111.997 35.8481C113.248 35.8481 113.873 35.2461 113.873 34.0421V33.1041C113.677 33.4867 113.374 33.7901 112.963 34.0141C112.562 34.2381 112.114 34.3501 111.619 34.3501C111.003 34.3501 110.466 34.2101 110.009 33.9301C109.552 33.6407 109.197 33.2394 108.945 32.7261C108.693 32.2127 108.567 31.6154 108.567 30.9341C108.567 30.2527 108.693 29.6601 108.945 29.1561C109.197 28.6427 109.552 28.2461 110.009 27.9661C110.466 27.6767 111.003 27.5321 111.619 27.5321C112.132 27.5321 112.59 27.6487 112.991 27.8821C113.392 28.1061 113.686 28.4094 113.873 28.7921V27.6721H115.581V33.8321C115.581 34.9427 115.287 35.7781 114.699 36.3381C114.111 36.8981 113.257 37.1781 112.137 37.1781ZM112.095 33.0201C112.636 33.0201 113.066 32.8334 113.383 32.4601C113.7 32.0867 113.859 31.5781 113.859 30.9341C113.859 30.2901 113.7 29.7861 113.383 29.4221C113.066 29.0487 112.636 28.8621 112.095 28.8621C111.554 28.8621 111.124 29.0487 110.807 29.4221C110.49 29.7861 110.331 30.2901 110.331 30.9341C110.331 31.5781 110.49 32.0867 110.807 32.4601C111.124 32.8334 111.554 33.0201 112.095 33.0201ZM117.254 34.5181V27.6721H118.962V28.7361C119.195 28.3441 119.508 28.0454 119.9 27.8401C120.301 27.6347 120.749 27.5321 121.244 27.5321C122.859 27.5321 123.666 28.4701 123.666 30.3461V34.5181H121.916V30.4301C121.916 29.8981 121.813 29.5107 121.608 29.2681C121.412 29.0254 121.104 28.9041 120.684 28.9041C120.171 28.9041 119.76 29.0674 119.452 29.3941C119.153 29.7114 119.004 30.1361 119.004 30.6681V34.5181H117.254ZM128.678 34.6581C127.903 34.6581 127.236 34.5134 126.676 34.2241C126.116 33.9347 125.682 33.5241 125.374 32.9921C125.075 32.4601 124.926 31.8301 124.926 31.1021C124.926 30.3927 125.07 29.7721 125.36 29.2401C125.658 28.7081 126.064 28.2927 126.578 27.9941C127.1 27.6861 127.693 27.5321 128.356 27.5321C129.326 27.5321 130.092 27.8401 130.652 28.4561C131.221 29.0721 131.506 29.9121 131.506 30.9761V31.4941H126.606C126.736 32.7167 127.436 33.3281 128.706 33.3281C129.088 33.3281 129.471 33.2721 129.854 33.1601C130.236 33.0387 130.586 32.8521 130.904 32.6001L131.394 33.7761C131.067 34.0467 130.656 34.2614 130.162 34.4201C129.667 34.5787 129.172 34.6581 128.678 34.6581ZM128.426 28.7221C127.912 28.7221 127.497 28.8807 127.18 29.1981C126.862 29.5154 126.671 29.9447 126.606 30.4861H130.05C130.012 29.9167 129.854 29.4827 129.574 29.1841C129.303 28.8761 128.92 28.7221 128.426 28.7221ZM132.751 34.5181V27.6721H134.459V28.8761C134.795 28.0641 135.514 27.6161 136.615 27.5321L137.147 27.4901L137.259 28.9741L136.251 29.0721C135.103 29.1841 134.529 29.7721 134.529 30.8361V34.5181H132.751Z" fill="white"/>
<path fill-rule="evenodd" clip-rule="evenodd" d="M58.2963 16.8311H55.2562C55.2562 16.8311 53.3719 11.6812 52.57 9.49342C52.5157 9.34436 52.3743 9.24575 52.2161 9.24575C52.0578 9.24498 51.9164 9.34436 51.8621 9.49266C51.0564 11.6804 49.1607 16.8311 49.1607 16.8311H46.1855C46.1855 16.8311 49.7776 8.26729 50.7155 6.03212C50.8493 5.71259 51.1627 5.50391 51.5097 5.50391H52.9965C53.3573 5.50391 53.683 5.721 53.8213 6.05429C54.7631 8.32309 58.2963 16.8311 58.2963 16.8311Z" fill="white"/>
<path fill-rule="evenodd" clip-rule="evenodd" d="M114.323 16.7787H111.312C111.312 16.7787 109.443 11.6762 108.65 9.50751C108.596 9.36074 108.456 9.26213 108.299 9.26213C108.142 9.26213 108.002 9.35997 107.948 9.50674C107.15 11.6754 105.272 16.7787 105.272 16.7787H102.323C102.323 16.7787 105.847 8.37769 106.798 6.11271C106.939 5.77484 107.269 5.55469 107.635 5.55469H109.093C109.438 5.55469 109.749 5.76261 109.881 6.08061C110.802 8.29895 114.323 16.7787 114.323 16.7787Z" fill="white"/>
<path fill-rule="evenodd" clip-rule="evenodd" d="M68.1987 12.557C68.1987 13.2335 68.0848 13.8489 67.8578 14.4039C67.6307 14.9588 67.3059 15.4343 66.8831 15.831C66.4604 16.227 65.9505 16.5358 65.3535 16.7583C64.7565 16.98 64.093 17.0908 63.3637 17.0908C62.6238 17.0908 61.958 16.98 61.3663 16.7583C60.7746 16.5358 60.2724 16.227 59.8604 15.831C59.4484 15.4343 59.1311 14.9588 58.9095 14.4039C58.6878 13.8489 58.5762 13.2335 58.5762 12.557V5.56641H61.2715V12.3353C61.2715 12.6419 61.3113 12.9324 61.39 13.2068C61.4695 13.482 61.591 13.7274 61.7546 13.9445C61.9182 14.1608 62.1353 14.3328 62.4044 14.4597C62.6742 14.5866 62.9991 14.65 63.3798 14.65C63.7605 14.65 64.0854 14.5866 64.3544 14.4597C64.6243 14.3328 64.8437 14.1608 65.0126 13.9445C65.1815 13.7274 65.3031 13.482 65.3772 13.2068C65.4514 12.9324 65.4881 12.6419 65.4881 12.3353V5.56641H68.1987V12.557Z" fill="white"/>
<path fill-rule="evenodd" clip-rule="evenodd" d="M83.8656 7.88107V16.7904H81.1549V7.88107H77.9849V5.56641H87.0364V7.88107H83.8656Z" fill="white"/>
<path fill-rule="evenodd" clip-rule="evenodd" d="M94.2915 16.7904L91.866 12.3354H90.9464V16.7904H88.2832V5.56641H92.564C93.1029 5.56641 93.628 5.62221 94.141 5.73305C94.6539 5.84389 95.1133 6.03194 95.52 6.29567C95.9274 6.56016 96.2515 6.90873 96.4954 7.34215C96.7377 7.77558 96.86 8.3145 96.86 8.95891C96.86 9.72027 96.6536 10.3593 96.2416 10.8776C95.8296 11.3951 95.2585 11.7651 94.5293 11.9868L97.4624 16.7904H94.2915ZM94.1807 9.00706C94.1807 8.74257 94.1249 8.52854 94.0141 8.36495C93.9032 8.2006 93.7603 8.07371 93.586 7.98427C93.4117 7.89483 93.216 7.83368 92.9997 7.80234C92.7826 7.77023 92.5739 7.75418 92.3736 7.75418H90.9312V10.37H92.2146C92.4371 10.37 92.6641 10.3517 92.8965 10.3142C93.1289 10.2775 93.3406 10.2118 93.531 10.1162C93.7213 10.0215 93.8765 9.88386 93.998 9.70422C94.1196 9.52458 94.1807 9.29219 94.1807 9.00706Z" fill="white"/>
<path fill-rule="evenodd" clip-rule="evenodd" d="M98.6367 16.7904H101.363V5.56641H98.6367V16.7904Z" fill="white"/>
<path fill-rule="evenodd" clip-rule="evenodd" d="M122.22 16.7904L117.703 9.45043H117.655L117.719 16.7904H115.087V5.56641H118.178L122.68 12.8903H122.728L122.665 5.56641H125.296V16.7904H122.22Z" fill="white"/>
<path fill-rule="evenodd" clip-rule="evenodd" d="M75.8127 8.18758C75.5497 8.00641 75.3494 7.90551 75.075 7.77785C74.6997 7.60356 74.3381 7.51641 73.9895 7.51641C73.8091 7.51641 73.6272 7.53247 73.4422 7.56381C73.2572 7.59592 73.0906 7.6563 72.943 7.74574C72.7947 7.83594 72.6709 7.95214 72.57 8.09508C72.4698 8.23803 72.4194 8.41996 72.4194 8.64164C72.4194 8.83198 72.4591 8.99022 72.5386 9.11711C72.6181 9.24401 72.7343 9.35484 72.8872 9.4504C73.0409 9.54518 73.2228 9.63233 73.4345 9.71183C73.6455 9.79133 73.8833 9.87312 74.1477 9.95797C74.5284 10.0849 74.9244 10.224 75.3364 10.3776C75.7484 10.5305 76.1238 10.7346 76.4616 10.9876C76.8003 11.2414 77.0801 11.5564 77.3025 11.9309C77.5242 12.3063 77.635 12.7741 77.635 13.3344C77.635 13.9788 77.5158 14.5361 77.278 15.007C77.0403 15.4763 76.7208 15.8654 76.3195 16.1712C75.9181 16.4785 75.458 16.7055 74.9404 16.853C74.4222 17.0013 73.8886 17.0755 73.339 17.0755C72.5363 17.0755 71.9294 16.9249 71.285 16.7292C70.6826 16.5465 70.0122 16.2614 69.481 15.9403L70.4128 13.7197C70.7048 13.9934 71.2414 14.3052 71.7039 14.5048C72.2206 14.7272 72.8949 14.8403 73.339 14.8403C73.54 14.8403 73.7357 14.8189 73.9261 14.7769C74.1156 14.7341 74.2823 14.666 74.4252 14.5705C74.5674 14.4757 74.6813 14.3488 74.7662 14.1898C74.8502 14.0316 74.8923 13.8412 74.8923 13.6195C74.8923 13.4078 74.8403 13.2282 74.7341 13.0806C74.6286 12.9323 74.478 12.7978 74.2823 12.6763C74.0866 12.5547 73.8443 12.4439 73.553 12.3437C73.2625 12.2428 72.9323 12.135 72.5623 12.0181C72.2031 11.9019 71.8514 11.7651 71.5082 11.6061C71.165 11.4478 70.8584 11.2445 70.5886 10.9961C70.3195 10.7476 70.1024 10.4464 69.9388 10.0925C69.7753 9.73859 69.6935 9.30745 69.6935 8.79988C69.6935 8.17687 69.8204 7.64331 70.0734 7.19918C70.3272 6.75581 70.6605 6.39119 71.0725 6.10529C71.4845 5.82016 71.9493 5.61148 72.4675 5.47923C72.9851 5.34699 73.5079 5.28125 74.0369 5.28125C74.6706 5.28125 75.3181 5.39744 75.9785 5.62983C76.2476 5.72461 76.5029 5.83775 76.7452 5.96923L75.8127 8.18758Z" fill="white"/>
<path fill-rule="evenodd" clip-rule="evenodd" d="M143.147 16.8483H140.099C140.099 16.8483 138.208 11.6839 137.405 9.48926C137.35 9.3402 137.209 9.24083 137.05 9.24083C136.891 9.24083 136.749 9.33943 136.694 9.4885C135.887 11.6831 133.986 16.8483 133.986 16.8483H131.001C131.001 16.8483 134.556 8.37397 135.525 6.06389C135.671 5.71455 136.012 5.48828 136.391 5.48828H137.789C138.177 5.48828 138.527 5.72143 138.676 6.07994C139.645 8.41372 143.147 16.8483 143.147 16.8483Z" fill="white"/>
<path fill-rule="evenodd" clip-rule="evenodd" d="M153.179 12.557C153.179 13.2335 153.065 13.8489 152.838 14.4039C152.611 14.9588 152.286 15.4343 151.864 15.831C151.441 16.227 150.931 16.5358 150.334 16.7583C149.737 16.98 149.073 17.0908 148.344 17.0908C147.604 17.0908 146.938 16.98 146.347 16.7583C145.755 16.5358 145.253 16.227 144.841 15.831C144.429 15.4343 144.112 14.9588 143.89 14.4039C143.667 13.8489 143.557 13.2335 143.557 12.557V5.56641H146.252V12.3353C146.252 12.6419 146.292 12.9324 146.37 13.2068C146.45 13.482 146.572 13.7274 146.735 13.9445C146.899 14.1608 147.116 14.3328 147.385 14.4597C147.655 14.5866 147.98 14.65 148.36 14.65C148.741 14.65 149.065 14.5866 149.335 14.4597C149.605 14.3328 149.824 14.1608 149.993 13.9445C150.162 13.7274 150.284 13.482 150.358 13.2068C150.432 12.9324 150.469 12.6419 150.469 12.3353V5.56641H153.179V12.557Z" fill="white"/>
<path fill-rule="evenodd" clip-rule="evenodd" d="M165.516 11.1467C165.516 12.1297 165.333 12.9775 164.968 13.6907C164.604 14.4039 164.123 14.991 163.526 15.4504C162.929 15.9106 162.256 16.2484 161.505 16.4648C160.755 16.6818 159.994 16.7904 159.222 16.7904H155.037V5.56641H159.095C159.888 5.56641 160.67 5.6589 161.441 5.84389C162.213 6.02888 162.9 6.33542 163.502 6.76349C164.105 7.19157 164.591 7.76488 164.961 8.48344C165.331 9.20199 165.516 10.0895 165.516 11.1467ZM162.694 11.1467C162.694 10.513 162.591 9.98629 162.385 9.56968C162.178 9.15154 161.904 8.81902 161.561 8.57058C161.217 8.32214 160.826 8.14556 160.387 8.03931C159.949 7.93382 159.497 7.88107 159.032 7.88107H157.684V14.4436H158.969C159.455 14.4436 159.923 14.3886 160.372 14.2777C160.821 14.1661 161.217 13.9842 161.561 13.7304C161.904 13.4774 162.178 13.1388 162.385 12.716C162.591 12.2933 162.694 11.7697 162.694 11.1467Z" fill="white"/>
<path fill-rule="evenodd" clip-rule="evenodd" d="M167.149 16.7904H169.876V5.56641H167.149V16.7904Z" fill="white"/>
<path fill-rule="evenodd" clip-rule="evenodd" d="M183.731 11.131C183.731 12.0185 183.578 12.8303 183.271 13.5642C182.965 14.2988 182.539 14.9271 181.995 15.4508C181.451 15.9736 180.804 16.378 180.053 16.6631C179.303 16.949 178.489 17.0912 177.612 17.0912C176.735 17.0912 175.924 16.949 175.178 16.6631C174.433 16.378 173.789 15.9736 173.245 15.4508C172.7 14.9271 172.275 14.2988 171.969 13.5642C171.662 12.8303 171.509 12.0185 171.509 11.131C171.509 10.2328 171.662 9.42178 171.969 8.69788C172.275 7.97397 172.7 7.35861 173.245 6.85104C173.789 6.34346 174.433 5.95284 175.178 5.67765C175.924 5.40322 176.735 5.26562 177.612 5.26562C178.489 5.26562 179.303 5.40322 180.053 5.67765C180.804 5.95284 181.451 6.34346 181.995 6.85104C182.539 7.35861 182.965 7.97397 183.271 8.69788C183.578 9.42178 183.731 10.2328 183.731 11.131ZM180.83 11.131C180.83 10.6449 180.75 10.19 180.592 9.7673C180.434 9.34534 180.215 8.983 179.935 8.68182C179.654 8.38064 179.316 8.14291 178.92 7.96862C178.524 7.79433 178.088 7.70719 177.612 7.70719C177.136 7.70719 176.703 7.79433 176.312 7.96862C175.921 8.14291 175.583 8.38064 175.298 8.68182C175.013 8.983 174.793 9.34534 174.64 9.7673C174.486 10.19 174.41 10.6449 174.41 11.131C174.41 11.6386 174.489 12.1057 174.648 12.5337C174.806 12.9618 175.026 13.3287 175.305 13.636C175.585 13.9418 175.921 14.1826 176.312 14.3569C176.703 14.5312 177.136 14.6183 177.612 14.6183C178.088 14.6183 178.521 14.5312 178.912 14.3569C179.303 14.1826 179.641 13.9418 179.926 13.636C180.211 13.3287 180.434 12.9618 180.592 12.5337C180.75 12.1057 180.83 11.6386 180.83 11.131Z" fill="white"/>
</g>
<defs>
<clipPath id="clip0_286_13274">
<rect width="210" height="39" fill="white" transform="translate(0 0.0820312)"/>
</clipPath>
</defs>
</svg>
