<?xml version="1.0" encoding="UTF-8" standalone="no"?>
<!-- Created with Inkscape (http://www.inkscape.org/) -->

<svg
   width="600mm"
   height="124.882mm"
   viewBox="0 0 600 124.88202"
   version="1.1"
   id="svg1"
   xml:space="preserve"
   inkscape:version="1.4.2 (ebf0e940, 2025-05-08)"
   sodipodi:docname="20251219-PolarDesigner Logo.svg"
   inkscape:export-filename="/home/sgrill/Repos/projects/AustrianAudio/polardesigner/assets/austrianAudioLogo.svg"
   inkscape:export-xdpi="96"
   inkscape:export-ydpi="96"
   xmlns:inkscape="http://www.inkscape.org/namespaces/inkscape"
   xmlns:sodipodi="http://sodipodi.sourceforge.net/DTD/sodipodi-0.dtd"
   xmlns="http://www.w3.org/2000/svg"
   xmlns:svg="http://www.w3.org/2000/svg"><sodipodi:namedview
     id="namedview1"
     pagecolor="#ffffff"
     bordercolor="#000000"
     borderopacity="0.25"
     inkscape:showpageshadow="2"
     inkscape:pageopacity="0.0"
     inkscape:pagecheckerboard="0"
     inkscape:deskcolor="#d1d1d1"
     inkscape:document-units="mm"
     showguides="false"
     inkscape:zoom="0.17014996"
     inkscape:cx="708.19882"
     inkscape:cy="602.40978"
     inkscape:window-width="1712"
     inkscape:window-height="1040"
     inkscape:window-x="0"
     inkscape:window-y="39"
     inkscape:window-maximized="1"
     inkscape:current-layer="g1"
     inkscape:clip-to-page="false"><inkscape:page
       x="0"
       y="0"
       width="600"
       height="124.88202"
       id="page2"
       margin="0"
       bleed="0" /></sodipodi:namedview><defs
     id="defs1" /><g
     id="g1"
     transform="matrix(0.97072643,0,0,0.97072643,-132.70192,-95.965695)"><path
       id="path15-8-9-6"
       clip-path="none"
       style="fill:#ffffff"
       inkscape:label="path15-8-9-6"
       transform="translate(24.523064,-627.47477)"
       d="m 178.85726,726.34668 c -1.99394,-0.0712 -3.98581,-0.049 -5.96976,0.0655 -13.22628,0.76354 -26.0937,5.62861 -36.78684,14.26214 -2.76754,2.23449 -7.85719,7.36287 -9.98046,10.05659 -4.90687,6.22519 -9.12094,14.37846 -11.28046,21.82467 -1.60879,5.54723 -2.56807,11.98065 -2.24598,15.06226 0.11658,1.11536 0.0759,1.59331 -0.13574,1.59331 -0.17627,0 -0.30238,0.44117 -0.30238,1.05831 0,0.58209 0.0959,1.05831 0.21294,1.05831 0.11708,0 0.22589,1.57736 0.24169,3.50551 0.0952,11.59387 5.30496,25.33571 13.56689,35.78497 2.38619,3.01793 6.83943,7.50293 9.9235,9.99483 10.17521,8.22148 23.01534,13.33811 35.5864,14.18016 16.33649,1.09427 31.29744,-3.39371 44.31744,-13.2938 2.8465,-2.16438 8.22103,-7.42528 10.57563,-10.35204 13.8116,-17.16781 17.9688,-39.80132 11.1282,-60.58972 -6.3709,-19.36088 -21.65758,-34.6471 -41.01848,-41.01795 -5.85139,-1.92545 -11.85078,-2.97953 -17.83259,-3.19303 z m 530.58864,17.28055 c -2.02303,0.0512 -4.02196,0.25246 -5.28516,0.58506 -9.196,2.42127 -14.41971,9.28145 -14.41971,18.93721 0,6.0405 1.67623,10.33564 5.53003,14.17058 3.0741,3.05907 6.33316,4.7301 10.82956,5.55239 0.6794,0.12394 2.8426,0.18166 4.8071,0.12776 4.182,-0.11472 6.38438,-0.64534 9.64988,-2.32423 2.813,-1.44628 6.22759,-4.80282 7.60139,-7.47257 1.7823,-3.46388 2.10349,-4.99268 2.11449,-10.05393 0.009,-4.13303 -0.0459,-4.66947 -0.67555,-6.61442 -2.1184,-6.54365 -7.54965,-11.18997 -14.72155,-12.59376 -1.3603,-0.26626 -3.40746,-0.36524 -5.43048,-0.31409 z m -347.94855,0.0346 c -2.90223,-0.0327 -5.84863,0.51819 -8.12363,1.60396 -4.5046,2.14985 -6.81431,6.08342 -6.43981,10.96744 0.3946,5.14555 3.1299,7.77697 10.623,10.22001 3.4708,1.1316 5.55813,2.24393 6.21943,3.31387 1.0883,1.76096 0.39412,4.29586 -1.43628,5.24576 -2.8377,1.47264 -8.70601,0.33707 -12.25891,-2.37214 l -0.86134,-0.65639 -0.23849,0.60954 c -0.1314,0.33529 -0.7891,1.91481 -1.4613,3.50977 -0.6722,1.59497 -1.17088,3.03266 -1.10888,3.19515 0.2812,0.73288 6.18919,3.00124 9.26499,3.55715 1.7829,0.32223 6.55442,0.11835 8.27322,-0.35348 3.7776,-1.03702 6.89449,-3.4388 8.27109,-6.37274 0.9002,-1.91868 1.10835,-2.9706 1.10835,-5.60615 0,-2.4289 -0.51147,-4.05168 -1.81637,-5.76427 -1.4072,-1.84672 -3.44098,-3.14166 -6.94448,-4.42168 -6.3649,-2.32542 -7.05887,-2.62703 -7.77707,-3.37668 -1.505,-1.57088 -1.01989,-4.09931 1.00241,-5.225 2.1646,-1.20487 5.25684,-0.95764 8.24074,0.65851 l 1.34791,0.72985 1.43734,-3.42619 c 0.7905,-1.88453 1.47439,-3.52114 1.52039,-3.637 0.1313,-0.33316 -1.29323,-0.96699 -3.82013,-1.69926 -1.55502,-0.45061 -3.28084,-0.68041 -5.02218,-0.70003 z m 212.24132,0.57014 c -3.2846,0 -4.4069,0.35401 -5.0472,1.59225 -0.239,0.46212 -3.80353,8.86515 -7.92133,18.67371 l -7.48695,17.83366 h 4.95297 4.95296 l 4.53827,-12.36911 c 4.2537,-11.59331 5.00119,-13.29539 5.84039,-13.29539 0.7448,0 1.5424,1.84288 5.6727,13.10694 l 4.55584,12.42554 5.07008,0.0719 5.07008,0.0719 -1.34258,-3.24679 c -7.8114,-18.89153 -13.74281,-33.06683 -14.02471,-33.51823 -0.6352,-1.01725 -1.81662,-1.34631 -4.83052,-1.34631 z M 287.9572,744.364 c -3.4308,0 -3.56796,0.0218 -4.20396,0.66171 -0.4203,0.42293 -3.33991,7.05398 -8.09701,18.38837 -4.0921,9.7499 -7.54759,17.99759 -7.67859,18.32821 l -0.23849,0.60102 4.95403,-0.0719 4.95403,-0.0719 4.56915,-12.43565 c 4.1327,-11.24746 4.93587,-13.09683 5.68547,-13.09683 0.8118,0 1.70892,2.05568 5.86382,13.42795 l 4.47066,12.23655 h 5.00566 c 4.6484,0 4.99455,-0.0326 4.85395,-0.46261 -0.0833,-0.25466 -3.51398,-8.54792 -7.62428,-18.42936 -6.169,-14.8307 -7.60386,-18.06312 -8.22106,-18.52092 -0.6717,-0.49829 -1.10728,-0.55471 -4.29338,-0.55471 z m 121.58989,0.0852 v 18.80892 18.80945 h 4.36579 4.36578 v -7.42093 -7.42093 l 1.65241,0.0788 1.65241,0.0788 3.96972,7.33362 3.97025,7.33416 5.22553,0.008 c 2.874,0.005 5.22553,-0.0361 5.22553,-0.09 0,-0.0539 -2.09406,-3.52386 -4.65326,-7.71106 -2.5593,-4.18721 -4.7059,-7.75109 -4.7709,-7.91974 -0.0669,-0.17421 0.52403,-0.57216 1.36813,-0.92203 3.5676,-1.4787 5.93489,-4.90086 6.14969,-8.88968 0.2721,-5.0526 -1.84087,-8.56086 -6.35517,-10.5522 -2.6394,-1.16429 -3.64975,-1.27262 -13.10375,-1.40168 z m 115.54668,0.0463 0.19324,12.3031 c 0.1062,6.76672 0.094,12.29958 -0.0277,12.29458 -0.1218,-0.005 -3.61477,-5.54024 -7.76217,-12.3015 l -7.54071,-12.29351 -5.09297,-5.4e-4 -5.09351,-0.001 v 18.78496 l 0.001,18.78497 h 4.29925 4.29977 l -0.0793,-12.35952 c -0.0433,-6.79791 0.0161,-12.26567 0.13149,-12.15032 0.1153,0.11535 3.55476,5.64741 7.64346,12.29352 l 7.4337,12.08377 5.20104,0.0719 5.20158,0.0713 v -18.79082 -18.79083 h -4.40412 z m -215.55891,0.001 v 13.04093 c 0,14.32389 0.0243,14.59083 1.63058,17.89115 1.6955,3.48374 5.58047,6.33595 9.88837,7.2591 7.8633,1.68504 15.91479,-1.41856 18.84459,-7.26389 1.6248,-3.24095 1.65081,-3.52702 1.65081,-17.88636 v -13.04093 h -4.34716 -4.34715 l -0.10434,12.36911 c -0.0711,8.42351 -0.20244,12.66758 -0.41204,13.30444 -1.0648,3.23595 -3.43214,4.89644 -6.92904,4.86034 -3.2846,-0.0339 -4.99867,-1.17095 -6.42597,-4.26251 -0.574,-1.24379 -0.58697,-1.51135 -0.66597,-13.77025 l -0.0799,-12.50113 h -4.35142 z m 65.35211,0 v 3.8361 3.83663 h 5.29154 5.29154 v 14.94887 14.94886 h 4.49834 4.49781 v -14.94886 -14.94887 h 5.29154 5.29154 v -3.83663 -3.8361 h -15.08089 z m 69.32077,0 v 18.78496 18.7855 h 4.49781 4.49781 v -18.7855 -18.78496 h -4.49781 z m 151.33643,0 0.0101,12.76571 c 0.005,14.26671 0.0786,15.04051 1.71948,18.16318 2.0027,3.81127 5.4132,6.29183 10.0502,7.30967 2.14367,0.46948 6.20014,0.46706 8.46167,-0.006 2.446,-0.5118 5.75077,-2.17176 7.47257,-3.75305 1.6219,-1.48953 3.02854,-3.75116 3.83664,-6.16885 0.5539,-1.65697 0.57869,-2.20521 0.66969,-15.01488 l 0.0937,-13.29539 h -4.501 -4.50153 l -0.0799,12.63369 c -0.0773,12.17344 -0.10019,12.6773 -0.63349,13.82454 -1.3038,2.80477 -3.20639,4.03474 -6.29289,4.06874 -1.0367,0.0114 -2.35172,-0.14111 -2.92152,-0.33911 -1.5699,-0.54549 -3.22028,-2.21652 -3.84888,-3.89679 -0.514,-1.37405 -0.53874,-2.01276 -0.53874,-13.86553 v -12.42554 h -4.4978 z m 38.63463,0 v 18.80306 18.8036 l 9.32621,-0.099 c 10.6433,-0.11328 11.51056,-0.24532 15.94116,-2.42751 6.9998,-3.44764 10.60609,-10.45328 9.69459,-18.83235 -1.0138,-9.31903 -6.85046,-14.64717 -17.49296,-15.96937 -1.2331,-0.1532 -5.66786,-0.27842 -9.85536,-0.27842 z m 40.74539,0 v 18.78496 18.7855 h 4.49834 4.49781 v -18.7855 -18.78496 h -4.49781 z m -197.7162,0.0559 c -3.0488,-0.0665 -3.60198,-0.0122 -4.29658,0.42108 -0.7066,0.44077 -1.66115,2.55569 -8.40045,18.61302 -4.18058,9.96062 -7.60136,18.19246 -7.60353,18.29787 0.002,0.10027 2.1741,0.18027 4.82893,0.17727 l 4.8284,-0.005 4.47332,-12.23177 c 2.4601,-6.72747 4.58825,-12.38044 4.72885,-12.56234 0.1407,-0.1819 0.59539,-0.33113 1.01039,-0.33113 0.5581,0 0.84946,0.18958 1.12006,0.72772 0.2012,0.40019 2.31295,6.05563 4.69265,12.56768 l 4.3264,11.83995 h 5.00034 c 3.8965,0 4.9696,-0.0728 4.863,-0.33059 -9.3613,-22.6235 -15.09757,-36.13111 -15.52487,-36.559 -0.4902,-0.49081 -0.91681,-0.55614 -4.04691,-0.62444 z m -322.70087,2.12673 c 1.49874,0.0643 2.92671,0.26098 4.23004,0.59729 3.12245,0.80572 5.15035,2.07274 8.00864,5.0046 l 2.59893,2.66654 6.52871,0.0815 c 3.59085,0.0448 6.89316,0.0139 7.33842,-0.0687 0.54905,-0.10181 1.57119,-0.89478 3.17546,-2.46424 2.59918,-2.54278 4.78594,-3.86535 7.92134,-4.78953 9.0496,-2.66742 19.33116,-0.0408 26.67596,6.81459 7.1476,6.6712 12.23354,18.40592 13.42954,30.98585 1.7167,18.05561 -6.4875,37.85996 -20.6583,49.8677 -8.2034,6.95119 -17.72833,11.21754 -28.34114,12.69437 -7.70452,1.07212 -16.17894,0.60105 -23.81991,-1.32448 -19.61376,-4.94268 -35.20219,-20.45491 -40.93331,-40.73261 -5.13259,-18.15995 -0.78343,-38.26654 10.79442,-49.90178 3.03694,-3.052 5.78855,-5.04496 9.12178,-6.60697 4.30167,-2.01583 9.43321,-3.01698 13.92942,-2.8241 z m 263.77154,4.88216 3.711,0.14693 c 3.1833,0.12602 3.88754,0.23536 4.94764,0.76711 1.709,0.85728 2.30241,1.75491 2.30241,3.48156 0,1.87294 -0.69673,3.01624 -2.36203,3.87389 -1.1778,0.60657 -1.66677,0.68196 -4.95297,0.76446 l -3.64605,0.0916 v -4.56275 z m 291.83533,0.21081 c 2.5684,0 2.90781,0.0627 4.49781,0.82727 2.2936,1.10295 3.69952,2.37763 4.70702,4.26783 3.4437,6.46113 1.31232,14.28045 -4.65378,17.074 -2.2975,1.0758 -5.64951,1.27553 -8.06401,0.48018 -4.207,-1.38573 -6.96162,-5.31228 -7.26602,-10.35736 -0.3198,-5.30151 1.90969,-9.40603 6.21729,-11.44655 1.6533,-0.78325 1.98629,-0.84537 4.56169,-0.84537 z m -67.20415,0.39713 h 3.18611 c 7.0652,0 10.96779,1.83097 12.90039,6.05227 0.9096,1.98689 1.1405,6.27595 0.4658,8.65225 -0.9198,3.23938 -3.34324,5.65991 -6.78584,6.77679 -1.3041,0.42308 -2.63049,0.58028 -5.73179,0.67928 l -4.03467,0.12882 V 763.314 Z M 176.6347,762.22428 c -7.14541,-10e-4 -7.58083,0.076 -8.59689,1.51666 -1.0345,1.46675 -29.95309,56.44321 -29.95309,56.94314 0,0.28329 0.20848,0.63636 0.46314,0.78468 0.28714,0.16725 3.63853,0.27289 8.82261,0.27789 7.74751,0.007 8.39134,-0.0274 8.79439,-0.47273 0.45784,-0.50591 8.88878,-17.52899 14.2419,-28.75584 1.82199,-3.82117 3.47852,-6.94126 3.92234,-7.38846 0.63009,-0.63488 0.99885,-0.77763 2.05061,-0.79373 0.81211,-0.0124 1.54616,0.15322 2.00163,0.45143 0.84631,0.55411 3.33416,5.44248 12.0811,23.73847 3.23506,6.76672 6.1217,12.51104 6.4148,12.7657 0.4834,0.42012 1.31327,0.46314 8.94877,0.46314 4.6287,0 8.60411,-0.0725 8.83431,-0.16076 0.2301,-0.0883 0.41843,-0.46084 0.41843,-0.82781 0,-0.36697 -3.49918,-7.28921 -7.77548,-15.38326 -4.2764,-8.09405 -10.77785,-20.43144 -14.44845,-27.41645 -3.67052,-6.985 -6.96348,-13.15126 -7.31713,-13.70264 -1.27215,-1.9834 -1.51056,-2.03843 -8.90299,-2.03943 z" /><path
       style="font-weight:bold;font-size:48.6582px;font-family:'DIN Alternate';-inkscape-font-specification:'DIN Alternate Bold';fill:#ffffff;stroke-width:0.253"
       d="m 292.02095,191.01487 q 6.71483,0 9.92627,2.82217 3.21144,2.77352 3.21144,7.88263 0,2.28694 -0.68121,4.37924 -0.68122,2.0923 -2.28694,3.79534 -1.55706,1.65438 -4.13594,2.62754 -2.57889,0.92451 -6.32557,0.92451 h -3.16278 v 12.31052 h -7.44471 v -34.74195 z m -0.24329,6.08227 h -3.21144 v 10.21822 h 2.48156 q 2.04365,0 3.5034,-0.48658 1.5084,-0.53524 2.28693,-1.70304 0.82719,-1.21645 0.82719,-3.16278 0,-2.33559 -1.45975,-3.60071 -1.41108,-1.26511 -4.42789,-1.26511 z m 43.50044,15.32733 q 0,3.30876 -0.9245,5.88765 -0.87585,2.57888 -2.57889,4.33058 -1.65438,1.75169 -4.03863,2.6762 -2.38425,0.9245 -5.40106,0.9245 -2.82217,0 -5.15777,-0.9245 -2.33559,-0.92451 -4.03863,-2.6762 -1.70303,-1.7517 -2.6762,-4.33058 -0.97316,-2.57889 -0.97316,-5.88765 0,-4.42789 1.55706,-7.49336 1.55706,-3.06547 4.47655,-4.62253 2.9195,-1.60572 6.95813,-1.60572 3.74668,0 6.61751,1.60572 2.87084,1.55706 4.52521,4.62253 1.65438,3.06547 1.65438,7.49336 z m -18.29548,0 q 0,2.57889 0.53524,4.4279 0.5839,1.84901 1.7517,2.82218 1.21645,0.97316 3.16278,0.97316 1.89767,0 3.06546,-0.97316 1.21646,-0.97317 1.7517,-2.82218 0.53524,-1.84901 0.53524,-4.4279 0,-2.62754 -0.5839,-4.42789 -0.53524,-1.80036 -1.70304,-2.72486 -1.16779,-0.97317 -3.11412,-0.97317 -2.82218,0 -4.13595,2.09231 -1.26511,2.0923 -1.26511,6.03361 z m 31.53051,13.33235 h -7.34738 v -36.98023 h 7.34738 z m 19.02537,-27.05396 q 5.0118,0 7.63934,2.38425 2.62754,2.3356 2.62754,6.95813 v 17.71158 h -5.10911 l -1.41109,-3.60071 h -0.19463 q -1.11914,1.41109 -2.33559,2.3356 -1.1678,0.9245 -2.72486,1.31377 -1.55706,0.43792 -3.79534,0.43792 -2.33559,0 -4.18461,-0.87584 -1.84901,-0.92451 -2.91949,-2.77352 -1.07048,-1.84901 -1.07048,-4.67119 0,-4.1846 3.01681,-6.27691 3.01681,-2.0923 9.00177,-2.33559 l 4.42789,-0.14598 v -0.82718 q 0,-2.38426 -1.07048,-3.30876 -1.07048,-0.97317 -3.01681,-0.97317 -1.80035,0 -3.69802,0.5839 -1.89767,0.5839 -3.74668,1.41109 l -2.14096,-5.01179 q 2.0923,-1.07048 4.7685,-1.70304 2.72486,-0.63256 5.9363,-0.63256 z m 0.19464,14.88941 q -3.45474,0.0973 -4.81717,1.11914 -1.36243,1.02182 -1.36243,2.87083 0,1.70304 0.92451,2.53023 0.97316,0.77853 2.53023,0.77853 2.33559,0 3.89265,-1.36243 1.60572,-1.36243 1.60572,-3.89265 v -2.18962 z m 31.77385,-14.88941 q 0.72987,0 1.55706,0.0973 0.87585,0.0487 1.36243,0.19463 l -0.72987,6.86081 q -0.53524,-0.0973 -1.26512,-0.19464 -0.72987,-0.0973 -1.75169,-0.0973 -1.11914,0 -2.28694,0.34061 -1.11914,0.3406 -2.0923,1.11913 -0.97316,0.77854 -1.55706,2.04365 -0.5839,1.26511 -0.5839,3.21144 v 13.47832 h -7.34739 v -26.56738 h 5.59569 l 1.07048,4.47656 h 0.34061 q 0.77853,-1.41109 1.94633,-2.53023 1.1678,-1.11914 2.62754,-1.75169 1.45975,-0.68122 3.11413,-0.68122 z m 36.49368,9.09909 q 0,5.98495 -2.23828,9.97493 -2.23828,3.98997 -6.32557,5.98495 -4.03863,1.99499 -9.68298,1.99499 h -10.60749 v -34.74195 h 11.48334 q 5.49837,0 9.34237,1.94632 3.89266,1.89767 5.9363,5.64436 2.09231,3.74668 2.09231,9.1964 z m -7.78532,0.29194 q 0,-3.74668 -1.11913,-6.17959 -1.07049,-2.43291 -3.2601,-3.6007 -2.18962,-1.21646 -5.40106,-1.21646 h -3.844 v 22.52875 h 3.11412 q 5.3524,0 7.93129,-2.87084 2.57888,-2.87083 2.57888,-8.66116 z m 25.30228,-9.39103 q 3.69802,0 6.37422,1.41109 2.6762,1.36243 4.08729,4.08729 1.45975,2.6762 1.45975,6.56886 v 3.55204 h -17.07903 q 0.0973,3.01681 1.84901,4.76851 1.7517,1.70303 5.0118,1.70303 2.48156,0 4.52521,-0.48658 2.04364,-0.48658 4.1846,-1.45974 v 5.49837 q -1.94632,0.97317 -4.13594,1.41109 -2.14096,0.48658 -5.35241,0.48658 -3.94131,0 -7.00678,-1.45974 -3.0168,-1.45975 -4.7685,-4.47656 -1.7517,-3.06546 -1.7517,-7.63933 0,-4.67119 1.55707,-7.73666 1.60572,-3.11412 4.42789,-4.67119 2.87084,-1.55706 6.61752,-1.55706 z m 0.19463,5.20643 q -2.18962,0 -3.55205,1.41109 -1.36243,1.36243 -1.60572,4.08729 h 10.02359 q 0,-1.60572 -0.53524,-2.82218 -0.53524,-1.21645 -1.65438,-1.94633 -1.07048,-0.72987 -2.6762,-0.72987 z m 36.34768,14.01356 q 0,2.53023 -1.21645,4.4279 -1.1678,1.84901 -3.60071,2.87083 -2.43291,1.02182 -6.17959,1.02182 -2.82218,0 -4.96314,-0.38926 -2.14096,-0.34061 -4.13594,-1.1678 v -6.08227 q 2.14096,1.02182 4.62252,1.60572 2.48157,0.58389 4.28193,0.58389 2.23827,0 3.21144,-0.63255 1.02182,-0.63256 1.02182,-1.70304 0,-0.72987 -0.48658,-1.31377 -0.48659,-0.5839 -1.80036,-1.21646 -1.31377,-0.63255 -3.69802,-1.55706 -2.38425,-0.97316 -3.98997,-1.99498 -1.60572,-1.07048 -2.43291,-2.53023 -0.77853,-1.45975 -0.77853,-3.64937 0,-3.64936 2.87083,-5.54703 2.91949,-1.94633 7.688,-1.94633 2.57888,0 4.7685,0.53524 2.23828,0.53524 4.47655,1.50841 l -2.0923,5.01179 q -1.84901,-0.82719 -3.79534,-1.36243 -1.94633,-0.53524 -3.45473,-0.53524 -1.65438,0 -2.57888,0.53524 -0.92451,0.48658 -0.92451,1.41109 0,0.68121 0.48658,1.21645 0.53524,0.53524 1.80035,1.11914 1.31378,0.5839 3.64937,1.50841 2.38425,0.9245 3.98997,1.99498 1.60572,1.02183 2.43291,2.53023 0.82719,1.45975 0.82719,3.74668 z m 12.99178,-18.73341 v 26.56738 h -7.34739 v -26.56738 z m -3.64937,-10.46151 q 1.60572,0 2.77352,0.77853 1.21645,0.72988 1.21645,2.82218 0,1.99498 -1.21645,2.77352 -1.1678,0.77853 -2.77352,0.77853 -1.65438,0 -2.82217,-0.77853 -1.1678,-0.77854 -1.1678,-2.77352 0,-2.0923 1.1678,-2.82218 1.16779,-0.77853 2.82217,-0.77853 z m 19.65791,9.97493 q 2.77352,0 4.62253,1.07048 1.84901,1.02182 3.06547,2.77352 h 0.24329 l 0.63255,-3.35742 h 6.22825 v 26.76201 q 0,3.74668 -1.45974,6.27691 -1.45975,2.57889 -4.4279,3.89266 -2.91949,1.31377 -7.4447,1.31377 -3.06547,0 -5.49838,-0.38927 -2.43291,-0.3406 -4.57387,-1.21645 v -6.22825 q 2.18962,0.97316 4.47655,1.5084 2.3356,0.53524 5.35241,0.53524 3.06546,0 4.62252,-1.41108 1.60573,-1.41109 1.60573,-3.89266 v -0.72987 q 0,-0.5839 0.0487,-1.55707 0.0973,-0.97316 0.19464,-1.70303 h -0.24329 q -1.11914,1.75169 -2.96815,2.82217 -1.80036,1.07048 -4.52522,1.07048 -4.57387,0 -7.34739,-3.55205 -2.72485,-3.55204 -2.72485,-10.16956 0,-6.61751 2.77351,-10.21822 2.77352,-3.60071 7.34739,-3.60071 z m 2.38425,5.79033 q -1.60572,0 -2.77351,0.9245 -1.11914,0.92451 -1.70304,2.72486 -0.53524,1.80036 -0.53524,4.47656 0,3.98997 1.26511,5.9363 1.31377,1.94633 3.89266,1.94633 1.45974,0 2.48157,-0.43793 1.02182,-0.43792 1.65437,-1.26511 0.63256,-0.87585 0.92451,-2.18962 0.34061,-1.31377 0.34061,-3.11413 v -1.07048 q 0,-2.6762 -0.53524,-4.42789 -0.53524,-1.7517 -1.7517,-2.62754 -1.21645,-0.87585 -3.2601,-0.87585 z m 34.69329,-5.79033 q 4.37923,0 6.90946,2.28694 2.53023,2.28693 2.53023,7.4447 v 17.32232 h -7.29873 v -15.47331 q 0,-2.87083 -1.07048,-4.28192 -1.02183,-1.45974 -3.21145,-1.45974 -3.30875,0 -4.52521,2.28693 -1.16779,2.23828 -1.16779,6.47154 v 12.4565 h -7.34739 v -26.56738 h 5.64435 l 1.02182,3.55205 h 0.29195 q 0.87585,-1.31377 2.0923,-2.18962 1.26512,-0.9245 2.77352,-1.36243 1.55706,-0.48658 3.35742,-0.48658 z m 27.78381,0 q 3.69802,0 6.37422,1.41109 2.6762,1.36243 4.08729,4.08729 1.45974,2.6762 1.45974,6.56886 v 3.55204 h -17.07902 q 0.0973,3.01681 1.84901,4.76851 1.75169,1.70303 5.01179,1.70303 2.48157,0 4.52521,-0.48658 2.04365,-0.48658 4.18461,-1.45974 v 5.49837 q -1.94633,0.97317 -4.13595,1.41109 -2.14096,0.48658 -5.3524,0.48658 -3.94131,0 -7.00678,-1.45974 -3.01681,-1.45975 -4.7685,-4.47656 -1.7517,-3.06546 -1.7517,-7.63933 0,-4.67119 1.55706,-7.73666 1.60572,-3.11412 4.4279,-4.67119 2.87083,-1.55706 6.61752,-1.55706 z m 0.19463,5.20643 q -2.18962,0 -3.55205,1.41109 -1.36243,1.36243 -1.60572,4.08729 h 10.02359 q 0,-1.60572 -0.53524,-2.82218 -0.53524,-1.21645 -1.65438,-1.94633 -1.07048,-0.72987 -2.6762,-0.72987 z m 32.21173,-5.20643 q 0.72987,0 1.55706,0.0973 0.87585,0.0487 1.36243,0.19463 l -0.72987,6.86081 q -0.53524,-0.0973 -1.26511,-0.19464 -0.72988,-0.0973 -1.7517,-0.0973 -1.11914,0 -2.28693,0.34061 -1.11914,0.3406 -2.09231,1.11913 -0.97316,0.77854 -1.55706,2.04365 -0.5839,1.26511 -0.5839,3.21144 v 13.47832 h -7.34739 v -26.56738 h 5.5957 l 1.07048,4.47656 h 0.34061 q 0.77853,-1.41109 1.94632,-2.53023 1.1678,-1.11914 2.62755,-1.75169 1.45974,-0.68122 3.11412,-0.68122 z"
       id="text2-8-2-9"
       transform="scale(1.0538855,0.94886969)"
       aria-label="PolarDesigner" /></g></svg>
