<?xml version="1.0" encoding="UTF-8" standalone="no"?>
<svg
   viewBox="0 0 1024 1024"
   version="1.1"
   id="svg45"
   sodipodi:docname="austrianaudio_logo.svg"
   width="1024"
   height="1024"
   inkscape:version="1.3.2 (091e20e, 2023-11-25)"
   inkscape:export-filename="/Users/jayvaughan/Desktop/aa_logo.png"
   inkscape:export-xdpi="96.036186"
   inkscape:export-ydpi="96.036186"
   xmlns:inkscape="http://www.inkscape.org/namespaces/inkscape"
   xmlns:sodipodi="http://sodipodi.sourceforge.net/DTD/sodipodi-0.dtd"
   xmlns="http://www.w3.org/2000/svg"
   xmlns:svg="http://www.w3.org/2000/svg">
  <sodipodi:namedview
     id="namedview47"
     pagecolor="#ffffff"
     bordercolor="#666666"
     borderopacity="1.0"
     inkscape:pageshadow="2"
     inkscape:pageopacity="0.0"
     inkscape:pagecheckerboard="0"
     showgrid="false"
     width="1024px"
     inkscape:zoom="0.78222656"
     inkscape:cx="512"
     inkscape:cy="511.3608"
     inkscape:window-width="1920"
     inkscape:window-height="1147"
     inkscape:window-x="0"
     inkscape:window-y="25"
     inkscape:window-maximized="0"
     inkscape:current-layer="svg45"
     inkscape:showpageshadow="2"
     inkscape:deskcolor="#d1d1d1" />
  <defs
     id="defs11">
    <style
       id="style9">.cls-1,.cls-2{fill:#b71918;}.cls-1{fill-rule:evenodd;}</style>
  </defs>
  <g
     id="Ebene_2"
     data-name="Ebene 2"
     transform="matrix(2.3854229,0,0,2.3854229,5.3430405,132.14637)">
    <g
       id="Ebene_1-2"
       data-name="Ebene 1">
      <path
         class="cls-1"
         d="m 289.07,186.08 a 2.83,2.83 0 0 1 0.13,2.59 2.62,2.62 0 0 1 -2.29,1 h -32.35 a 3,3 0 0 1 -2.64,-1.69 c -4,-7.89 -21.48,-45.29 -32.53,-67.24 -1.85,-3.67 -3.23,-5.32 -6.8,-5.32 -3.57,0 -5,1.46 -6.8,5.31 -11,23.42 -28.78,59.14 -32.72,67.27 a 2.92,2.92 0 0 1 -2.62,1.67 h -31.62 a 3,3 0 0 1 -2.58,-1 3.31,3.31 0 0 1 0.23,-2.91 L 194.17,76.63 c 1.77,-3.35 3.89,-5.53 8.46,-5.53 h 20 c 4.76,0 7,2.27 8.86,5.76 10.93,20.9 48.68,92.36 57.59,109.22 z"
         id="path13" />
      <path
         class="cls-1"
         d="M 212.69,0 A 127.92,127.92 0 1 1 84.77,127.92 128,128 0 0 1 212.69,0 Z m -18.45,52.91 c -1,-1.44 -9.44,-12.7 -28.31,-12.27 -45.36,1 -68.49,46.62 -68.5,86.83 0,55.93 43,115.6 116.29,115.45 73.29,-0.15 114.09,-62.92 114.09,-115.14 0,-41.24 -22.65,-87.36 -66.09,-87 -21,0.16 -29.85,11.47 -30.9,12.84 -1.85,2.41 -3.63,3.91 -7.42,3.91 h -21.5 c -4.21,0 -5.75,-1.78 -7.66,-4.6 z"
         id="path15" />
      <path
         class="cls-1"
         d="M 37.44,309.55 H 28 c 0,0 -5.83,-15.92 -8.3,-22.69 a 1.17,1.17 0 0 0 -1.1,-0.76 1.16,1.16 0 0 0 -1.09,0.76 L 9.2,309.55 H 0 c 0,0 11.11,-26.48 14,-33.39 a 2.67,2.67 0 0 1 2.46,-1.63 h 4.6 a 2.77,2.77 0 0 1 2.55,1.7 z"
         id="path17" />
      <path
         class="cls-1"
         d="m 210.63,309.37 h -9.31 L 193.1,286.9 a 1.16,1.16 0 0 0 -2.17,0 l -8.28,22.48 h -9.11 l 13.83,-33 a 2.82,2.82 0 0 1 2.59,-1.72 h 4.51 a 2.64,2.64 0 0 1 2.43,1.62 l 13.73,33.07 z"
         id="path19" />
      <path
         class="cls-2"
         d="m 68.05,296.35 a 14.91,14.91 0 0 1 -1,5.7 12.52,12.52 0 0 1 -3,4.42 13.77,13.77 0 0 1 -4.73,2.86 18.94,18.94 0 0 1 -12.32,0 13.46,13.46 0 0 1 -4.66,-2.86 12.59,12.59 0 0 1 -2.94,-4.42 15.3,15.3 0 0 1 -1,-5.7 v -21.61 h 8.33 v 20.92 a 9.89,9.89 0 0 0 0.37,2.7 7,7 0 0 0 1.13,2.27 5.43,5.43 0 0 0 2,1.6 8.13,8.13 0 0 0 6,0 5.59,5.59 0 0 0 2,-1.6 6.45,6.45 0 0 0 1.13,-2.27 10.3,10.3 0 0 0 0.34,-2.7 v -20.92 h 8.38 v 21.61 z"
         id="path21" />
      <polygon
         class="cls-2"
         points="116.48,281.89 116.48,309.43 108.1,309.43 108.1,281.89 98.3,281.89 98.3,274.74 126.28,274.74 126.28,281.89 "
         id="polygon23" />
      <path
         class="cls-2"
         d="m 148.71,309.43 -7.49,-13.77 h -2.85 v 13.77 h -8.23 v -34.69 h 13.23 a 23.23,23.23 0 0 1 4.88,0.51 12.59,12.59 0 0 1 4.26,1.74 9.18,9.18 0 0 1 3,3.23 10.13,10.13 0 0 1 1.12,5 9.19,9.19 0 0 1 -1.91,5.93 10.38,10.38 0 0 1 -5.29,3.43 l 9.06,14.85 z m -0.34,-24.06 a 3.46,3.46 0 0 0 -0.51,-2 3.59,3.59 0 0 0 -1.33,-1.18 5.73,5.73 0 0 0 -1.81,-0.57 14.64,14.64 0 0 0 -1.94,-0.14 h -4.46 v 8.08 h 4 a 12.76,12.76 0 0 0 2.11,-0.17 6.71,6.71 0 0 0 2,-0.61 3.72,3.72 0 0 0 1.45,-1.28 3.79,3.79 0 0 0 0.56,-2.15 z"
         id="path25" />
      <polygon
         class="cls-2"
         points="162.14,309.43 162.14,274.74 170.57,274.74 170.57,309.43 "
         id="polygon27" />
      <polygon
         class="cls-2"
         points="213,309.43 213,274.74 222.55,274.74 236.47,297.38 236.62,297.38 236.42,274.74 244.56,274.74 244.56,309.43 235.05,309.43 221.08,286.74 220.94,286.74 221.13,309.43 "
         id="polygon29" />
      <path
         class="cls-1"
         d="m 91.59,282.84 a 14,14 0 0 0 -2.28,-1.27 8,8 0 0 0 -3.36,-0.81 9.82,9.82 0 0 0 -1.69,0.15 4.49,4.49 0 0 0 -1.54,0.56 4,4 0 0 0 -1.16,1.08 2.88,2.88 0 0 0 -0.46,1.69 2.67,2.67 0 0 0 0.37,1.47 3.21,3.21 0 0 0 1.07,1 10.4,10.4 0 0 0 1.7,0.81 c 0.65,0.25 1.38,0.5 2.2,0.76 1.18,0.39 2.4,0.82 3.68,1.3 a 13.66,13.66 0 0 1 3.47,1.88 9.85,9.85 0 0 1 2.6,2.92 8.37,8.37 0 0 1 1,4.34 11.42,11.42 0 0 1 -1.1,5.17 10.34,10.34 0 0 1 -3,3.6 12.69,12.69 0 0 1 -4.26,2.11 18.2,18.2 0 0 1 -5,0.68 20.33,20.33 0 0 1 -6.35,-1.07 A 25.46,25.46 0 0 1 72,306.8 l 2.88,-6.86 a 16,16 0 0 0 4,2.43 14.31,14.31 0 0 0 5,1 8.3,8.3 0 0 0 1.81,-0.19 4.6,4.6 0 0 0 1.55,-0.64 3.16,3.16 0 0 0 1,-1.18 3.69,3.69 0 0 0 0.39,-1.76 2.79,2.79 0 0 0 -0.49,-1.67 4.89,4.89 0 0 0 -1.39,-1.25 11.73,11.73 0 0 0 -2.26,-1 c -0.9,-0.31 -1.92,-0.64 -3.06,-1 a 29.32,29.32 0 0 1 -3.26,-1.27 10.83,10.83 0 0 1 -2.84,-1.89 8.91,8.91 0 0 1 -2,-2.79 9.45,9.45 0 0 1 -0.76,-4 9.75,9.75 0 0 1 1.18,-5 10.2,10.2 0 0 1 3.08,-3.38 13.13,13.13 0 0 1 4.32,-1.93 19.43,19.43 0 0 1 4.85,-0.62 18,18 0 0 1 6,1.08 15.79,15.79 0 0 1 2.47,1.12 l -2.88,6.86 z"
         id="path31" />
      <path
         class="cls-1"
         d="m 299.74,309.6 h -9.42 L 282,286.85 a 1.17,1.17 0 0 0 -2.2,0 c -2.49,6.79 -8.37,22.76 -8.37,22.76 h -9.23 l 14,-33.34 a 2.9,2.9 0 0 1 2.67,-1.78 h 4.33 a 3,3 0 0 1 2.74,1.83 l 13.82,33.29 z"
         id="path33" />
      <path
         class="cls-2"
         d="m 330.75,296.35 a 14.91,14.91 0 0 1 -1.05,5.7 12.52,12.52 0 0 1 -3,4.42 13.77,13.77 0 0 1 -4.73,2.86 18.94,18.94 0 0 1 -12.32,0 13.46,13.46 0 0 1 -4.66,-2.86 12.59,12.59 0 0 1 -2.94,-4.42 15.3,15.3 0 0 1 -1,-5.7 v -21.61 h 8.34 v 20.92 a 9.89,9.89 0 0 0 0.36,2.7 7,7 0 0 0 1.13,2.27 5.43,5.43 0 0 0 2,1.6 8.13,8.13 0 0 0 6,0 5.59,5.59 0 0 0 2,-1.6 6.45,6.45 0 0 0 1.13,-2.27 10.3,10.3 0 0 0 0.34,-2.7 v -20.92 h 8.38 v 21.61 z"
         id="path35" />
      <path
         class="cls-2"
         d="m 368.89,292 a 17,17 0 0 1 -1.69,7.86 15.79,15.79 0 0 1 -4.46,5.44 18.67,18.67 0 0 1 -6.25,3.14 25.3,25.3 0 0 1 -7.06,1 H 336.5 v -34.7 H 349 a 31,31 0 0 1 7.25,0.85 18.29,18.29 0 0 1 6.38,2.84 14.6,14.6 0 0 1 4.5,5.32 17.79,17.79 0 0 1 1.72,8.24 z m -8.72,0 a 11,11 0 0 0 -1,-4.88 8.29,8.29 0 0 0 -2.55,-3.09 10.21,10.21 0 0 0 -3.62,-1.64 17.72,17.72 0 0 0 -4.19,-0.49 h -4.17 v 20.29 h 4 a 17.73,17.73 0 0 0 4.34,-0.52 10.05,10.05 0 0 0 3.67,-1.69 8.42,8.42 0 0 0 2.55,-3.13 11,11 0 0 0 1,-4.85 z"
         id="path37" />
      <polygon
         class="cls-2"
         points="373.94,309.43 373.94,274.74 382.37,274.74 382.37,309.43 "
         id="polygon39" />
      <path
         class="cls-2"
         d="m 425.2,291.94 a 19.49,19.49 0 0 1 -1.42,7.52 17.24,17.24 0 0 1 -3.95,5.83 17.44,17.44 0 0 1 -6,3.75 21.13,21.13 0 0 1 -7.55,1.32 20.89,20.89 0 0 1 -7.52,-1.32 17.54,17.54 0 0 1 -6,-3.75 17.07,17.07 0 0 1 -3.94,-5.83 19.3,19.3 0 0 1 -1.42,-7.52 19.11,19.11 0 0 1 1.42,-7.53 16.49,16.49 0 0 1 3.94,-5.71 17.71,17.71 0 0 1 6,-3.62 21.55,21.55 0 0 1 7.52,-1.28 21.8,21.8 0 0 1 7.55,1.28 17.61,17.61 0 0 1 6,3.62 16.65,16.65 0 0 1 3.95,5.71 19.29,19.29 0 0 1 1.42,7.53 z m -9,0 a 11.92,11.92 0 0 0 -0.74,-4.22 10,10 0 0 0 -2,-3.35 9.3,9.3 0 0 0 -3.14,-2.21 9.88,9.88 0 0 0 -4,-0.81 9.75,9.75 0 0 0 -4,0.81 9.54,9.54 0 0 0 -5.17,5.56 13,13 0 0 0 0,8.55 10.34,10.34 0 0 0 2,3.41 9.29,9.29 0 0 0 3.11,2.23 10.38,10.38 0 0 0 8,0 9.61,9.61 0 0 0 3.14,-2.23 10,10 0 0 0 2.05,-3.41 12.38,12.38 0 0 0 0.74,-4.33 z"
         id="path41" />
    </g>
  </g>
</svg>
