<svg width="26" height="26" viewBox="0 0 26 26" fill="none" xmlns="http://www.w3.org/2000/svg">
<circle cx="13.4648" cy="12.6211" r="12.5" fill="#343639"/>
<path fill-rule="evenodd" clip-rule="evenodd" d="M9.15313 16.3094C9.40418 16.0583 9.81122 16.0583 10.0623 16.3094L13.4648 19.712L16.8674 16.3094C17.1185 16.0583 17.5255 16.0583 17.7766 16.3094C18.0276 16.5604 18.0276 16.9675 17.7766 17.2185L13.9194 21.0757C13.6684 21.3267 13.2613 21.3267 13.0103 21.0757L9.15313 17.2185C8.90208 16.9675 8.90208 16.5604 9.15313 16.3094Z" fill="white"/>
<path fill-rule="evenodd" clip-rule="evenodd" d="M17.7766 9.64765C17.5255 9.8987 17.1185 9.8987 16.8674 9.64765L13.4648 6.24507L10.0623 9.64765C9.81122 9.8987 9.40418 9.8987 9.15313 9.64765C8.90208 9.3966 8.90208 8.98956 9.15313 8.73851L13.0103 4.88137C13.2613 4.63032 13.6684 4.63032 13.9194 4.88137L17.7766 8.73851C18.0276 8.98956 18.0276 9.3966 17.7766 9.64765Z" fill="white"/>
</svg>
