<svg width="67" height="64" viewBox="0 0 67 64" fill="none" xmlns="http://www.w3.org/2000/svg">
<circle cx="32" cy="32" r="31.5" stroke="white"/>
<path d="M0.717041 25.9524C2.23708 28.0816 3.80841 30.1452 6.65544 30.2238C12.824 30.3941 13.4848 21.1979 19.6555 21.2412C25.7643 21.2841 26.3546 30.1041 32.4624 30.2238C38.747 30.3469 39.548 20.8028 45.8184 21.2412C51.5122 21.6393 51.6489 29.9079 57.3478 30.2238C60.0905 30.3758 61.74 28.5393 63.2723 26.4874" stroke="white"/>
<path d="M1.32861 40.0764C2.67724 41.8782 4.18677 43.4388 6.65549 43.507C12.824 43.6773 13.4848 34.4811 19.6555 34.5244C25.7644 34.5673 26.3547 43.3873 32.4625 43.507C38.747 43.6301 39.548 34.086 45.8185 34.5244C51.5123 34.9225 51.6489 43.1911 57.3479 43.507C59.7077 43.6378 61.2583 42.2965 62.6212 40.6124" stroke="white"/>
<path d="M10.521 55.3696C13.5323 52.8283 15.0777 47.7755 19.6555 47.8076C25.7643 47.8505 26.3546 56.6705 32.4624 56.7902C38.7469 56.9133 39.548 47.3692 45.8184 47.8076C49.9802 48.0986 51.173 52.5944 53.739 55.1161" stroke="white"/>
<path d="M4.41431 16.3906C5.06942 16.7168 5.80564 16.9171 6.65556 16.9406C12.8241 17.1109 13.4849 7.91471 19.6556 7.95801C25.7644 8.00088 26.3547 16.8209 32.4626 16.9406C38.7471 17.0637 39.5481 7.51962 45.8185 7.95801C51.5124 8.3561 51.649 16.6247 57.348 16.9406C58.2564 16.9909 59.0449 16.8231 59.749 16.5016" stroke="white"/>
<path d="M56.9266 58.9988L56.4689 58.2497L56.0581 59.0256C55.1511 60.7388 54.0975 61.6953 53.068 62.1359C52.0435 62.5743 50.9893 62.5255 50.0226 62.1282C48.0593 61.3213 46.5 59.0902 46.5 56.7395C46.5 51.9707 50.9152 47.9995 56.5 47.9995C62.0848 47.9995 66.5 51.9707 66.5 56.7395C66.5 59.1295 65.1151 61.4511 63.2744 62.2935C62.3725 62.7063 61.3519 62.7716 60.2873 62.3135C59.2108 61.8502 58.0471 60.8323 56.9266 58.9988Z" fill="#1C1E21" stroke="white"/>
</svg>
