<svg width="16" height="20" viewBox="0 0 16 20" fill="none" xmlns="http://www.w3.org/2000/svg">
<path d="M15.4648 4.94392C15.4648 6.0873 14.7616 7.18608 13.493 8.02234C12.2284 8.85595 10.4521 9.38784 8.46484 9.38784C6.47759 9.38784 4.70132 8.85595 3.43673 8.02234C2.16811 7.18608 1.46484 6.0873 1.46484 4.94392C1.46484 3.80054 2.16811 2.70176 3.43673 1.8655C4.70132 1.03189 6.47759 0.5 8.46484 0.5C10.4521 0.5 12.2284 1.03189 13.493 1.8655C14.7616 2.70176 15.4648 3.80054 15.4648 4.94392Z" stroke="white"/>
<path d="M15.4648 14.6063C15.4648 15.8937 14.7401 17.1052 13.4762 18.014C12.2132 18.9223 10.443 19.4996 8.46484 19.4996C6.48672 19.4996 4.71653 18.9223 3.45346 18.014C2.18961 17.1052 1.46484 15.8937 1.46484 14.6063C1.46484 13.3188 2.18961 12.1074 3.45346 11.1985C4.71653 10.2902 6.48672 9.71289 8.46484 9.71289C10.443 9.71289 12.2132 10.2902 13.4762 11.1985C14.7401 12.1074 15.4648 13.3188 15.4648 14.6063Z" stroke="white"/>
</svg>
