<svg width="24" height="22" viewBox="0 0 24 22" fill="none" xmlns="http://www.w3.org/2000/svg">
<path fill-rule="evenodd" clip-rule="evenodd" d="M16.9638 20.2381C16.7346 20.3585 16.5842 20.5925 16.5842 20.8514C16.5842 21.3268 17.066 21.6485 17.4887 21.4307C21.1422 19.5482 23.6406 15.7387 23.6406 11.3457C23.6406 5.08396 18.5645 0.0078125 12.3027 0.0078125C6.04099 0.0078125 0.964844 5.08396 0.964844 11.3457C0.964844 15.7386 3.46314 19.548 7.11642 21.4305C7.53908 21.6483 8.02092 21.3267 8.02092 20.8512C8.02092 20.5923 7.87057 20.3583 7.64137 20.2379C4.44494 18.5589 2.26484 15.2069 2.26484 11.3457C2.26484 5.80193 6.75896 1.30781 12.3027 1.30781C17.8465 1.30781 22.3406 5.80193 22.3406 11.3457C22.3406 15.207 20.1604 18.5591 16.9638 20.2381ZM15.6895 17.1848C15.4687 17.3144 15.3231 17.5462 15.3231 17.8022C15.3231 18.2847 15.8122 18.61 16.2322 18.3726C18.6613 16.9998 20.301 14.3936 20.301 11.4045C20.301 6.98711 16.72 3.40611 12.3026 3.40611C7.88523 3.40611 4.30423 6.98711 4.30423 11.4045C4.30423 14.3937 5.94397 16.9998 8.37302 18.3726C8.79305 18.61 9.28212 18.2847 9.28212 17.8022C9.28212 17.5462 9.13653 17.3144 8.91574 17.1848C6.93439 16.0213 5.60423 13.8683 5.60423 11.4045C5.60423 7.70508 8.6032 4.70611 12.3026 4.70611C16.002 4.70611 19.001 7.70508 19.001 11.4045C19.001 13.8682 17.6709 16.0213 15.6895 17.1848ZM13.9357 14.1192C13.9357 13.8751 14.064 13.6524 14.2507 13.495C14.909 12.9402 15.3272 12.1096 15.3272 11.1813C15.3272 9.51081 13.973 8.15662 12.3025 8.15662C10.632 8.15662 9.27786 9.51081 9.27786 11.1813C9.27786 12.1096 9.69609 12.9403 10.3544 13.4951C10.5411 13.6524 10.6694 13.8752 10.6694 14.1193C10.6694 14.629 10.151 14.968 9.74062 14.6658C8.67152 13.8784 7.97786 12.6109 7.97786 11.1813C7.97786 8.79283 9.91407 6.85662 12.3025 6.85662C14.6909 6.85662 16.6272 8.79283 16.6272 11.1813C16.6272 12.6108 15.9335 13.8783 14.8645 14.6657C14.4541 14.968 13.9357 14.6289 13.9357 14.1192ZM12.3025 11.8692C12.8244 11.8692 13.2474 11.4462 13.2474 10.9244C13.2474 10.4026 12.8244 9.97957 12.3025 9.97957C11.7807 9.97957 11.3577 10.4026 11.3577 10.9244C11.3577 11.4462 11.7807 11.8692 12.3025 11.8692Z" fill="white"/>
</svg>
