<svg width="67" height="64" viewBox="0 0 67 64" fill="none" xmlns="http://www.w3.org/2000/svg">
<circle cx="32" cy="32" r="31.5" stroke="white"/>
<path d="M0.5 36.5H63.4343" stroke="white"/>
<path d="M0.5 28.5L63.5 28.5" stroke="white"/>
<path d="M2.5 20.5L61.6208 20.5" stroke="white"/>
<path d="M7 12.5L57 12.5" stroke="white"/>
<path d="M17.9039 60.5H46.0001" stroke="white"/>
<path d="M7.75934 52.5H56.2434" stroke="white"/>
<path d="M16.0001 4.5L47.8319 4.5" stroke="white"/>
<path d="M2.91095 44.5H61.189" stroke="white"/>
<path d="M56.9266 58.9988L56.4689 58.2497L56.0581 59.0256C55.1511 60.7388 54.0975 61.6953 53.068 62.1359C52.0435 62.5743 50.9893 62.5255 50.0226 62.1282C48.0593 61.3213 46.5 59.0902 46.5 56.7395C46.5 51.9707 50.9152 47.9995 56.5 47.9995C62.0848 47.9995 66.5 51.9707 66.5 56.7395C66.5 59.1295 65.1151 61.4511 63.2744 62.2935C62.3725 62.7063 61.3519 62.7716 60.2873 62.3135C59.2108 61.8502 58.0471 60.8323 56.9266 58.9988Z" fill="#1C1E21" stroke="white"/>
</svg>
