<svg width="17" height="21" viewBox="0 0 17 21" fill="none" xmlns="http://www.w3.org/2000/svg">
<path d="M5.74154 14.1577L6.26043 13.1472C6.3735 12.927 6.30236 12.657 6.09547 12.5211L2.71404 10.3001C2.22978 9.98203 1.87155 9.50508 1.70103 8.95136C0.727355 5.78963 2.39608 2.41847 5.5006 1.27546L6.38781 0.948808C8.03985 0.340561 9.86435 0.403084 11.4709 1.123L12.2767 1.4841C15.251 2.81692 16.5672 6.31967 15.2068 9.28137C15.0479 9.62726 14.8072 9.92928 14.5055 10.1613L11.8024 12.2404C11.6082 12.3898 11.5519 12.6585 11.6699 12.8732L12.2845 13.9918C13.2971 15.8348 12.5714 18.1575 10.6988 19.1142C9.61804 19.6663 8.32734 19.6541 7.26067 19.0753C5.50225 18.1211 4.82765 15.9373 5.74154 14.1577Z" stroke="white"/>
</svg>
