<svg width="16" height="16" viewBox="0 0 16 16" fill="none" xmlns="http://www.w3.org/2000/svg">
<path d="M14.8783 15.312C15.1593 15.3116 15.3868 15.0835 15.3864 14.8025L15.3799 10.2233C15.3795 9.94235 15.1514 9.71487 14.8704 9.71527C14.5894 9.71566 14.3619 9.94378 14.3623 10.2248L14.3681 14.2951L10.2977 14.3009C10.0167 14.3012 9.78922 14.5294 9.78961 14.8104C9.79 15.0914 10.0181 15.3188 10.2991 15.3184L14.8783 15.312ZM0.999286 0.455769C0.718286 0.456163 0.49081 0.684278 0.491205 0.965279L0.497632 5.54444C0.498027 5.82544 0.726142 6.05291 1.00714 6.05252C1.28814 6.05212 1.51562 5.82401 1.51522 5.54301L1.50951 1.47265L5.57987 1.46693C5.86087 1.46654 6.08835 1.23842 6.08795 0.957422C6.08756 0.676422 5.85944 0.448947 5.57844 0.449341L0.999286 0.455769ZM15.2368 14.4429L1.35927 0.604286L0.640732 1.32484L14.5183 15.1635L15.2368 14.4429Z" fill="white"/>
<path d="M0.491205 14.8426C0.491599 15.1236 0.719714 15.3511 1.00071 15.3507L5.57987 15.3443C5.86087 15.3439 6.08835 15.1158 6.08795 14.8348C6.08756 14.5538 5.85944 14.3263 5.57844 14.3267L1.50808 14.3324L1.50237 10.262C1.50197 9.98105 1.27386 9.75357 0.992858 9.75397C0.711858 9.75436 0.484382 9.98247 0.484777 10.2635L0.491205 14.8426ZM15.3475 0.963641C15.3471 0.682641 15.1189 0.455166 14.8379 0.45556L10.2588 0.461988C9.97779 0.462382 9.75031 0.690498 9.7507 0.971497C9.7511 1.2525 9.97921 1.47997 10.2602 1.47958L14.3306 1.47387L14.3363 5.54423C14.3367 5.82523 14.5648 6.0527 14.8458 6.05231C15.1268 6.05192 15.3543 5.8238 15.3539 5.5428L15.3475 0.963641ZM1.36028 15.2012L15.1989 1.32362L14.4784 0.605088L0.639722 14.4827L1.36028 15.2012Z" fill="white"/>
</svg>
