<svg width="18" height="21" viewBox="0 0 18 21" fill="none" xmlns="http://www.w3.org/2000/svg">
<path d="M5.46979 15.272L5.73857 14.5295C5.81456 14.3196 5.73361 14.0851 5.5443 13.9668L2.74284 12.2159C1.72551 11.58 1.02332 10.5448 0.808715 9.36449C0.308643 6.6141 1.68384 3.8637 4.1842 2.61353L5.62774 1.89176C7.97338 0.718937 10.7635 0.869316 12.9695 2.28746L13.5965 2.69053C16.0125 4.24368 17.1083 7.20873 16.283 9.95976C16.0369 10.7802 15.5548 11.51 14.8968 12.0583L12.6148 13.96C12.4623 14.087 12.4008 14.293 12.4586 14.4828L12.6914 15.2474C13.196 16.9047 12.5395 18.6956 11.0835 19.6342L11.0068 19.6836C9.76523 20.484 8.1686 20.4777 6.93342 19.6674C5.48636 18.7181 4.8807 16.8993 5.46979 15.272Z" stroke="white"/>
</svg>
