<svg width="18" height="19" viewBox="0 0 18 19" fill="none" xmlns="http://www.w3.org/2000/svg">
<circle cx="8.75122" cy="9.71509" r="8.20442" stroke="white" stroke-width="1.0936"/>
<path fill-rule="evenodd" clip-rule="evenodd" d="M5.55108 5.52476C5.34259 5.30629 4.99646 5.29821 4.778 5.5067C4.55953 5.71519 4.55144 6.06131 4.75994 6.27978L8.0165 9.69214L4.59059 13.1429C4.37782 13.3572 4.37907 13.7034 4.59338 13.9162C4.80768 14.1289 5.1539 14.1277 5.36666 13.9134L8.7718 10.4836L11.956 13.8201C12.1645 14.0386 12.5106 14.0467 12.7291 13.8382C12.9476 13.6297 12.9556 13.2836 12.7472 13.0651L9.54258 9.70721L12.9118 6.3136C13.1246 6.09929 13.1233 5.75308 12.909 5.54031C12.6947 5.32755 12.3485 5.3288 12.1357 5.5431L8.78728 8.91578L5.55108 5.52476Z" fill="white"/>
</svg>
