<svg width="12" height="12" viewBox="0 0 12 12" fill="none" xmlns="http://www.w3.org/2000/svg">
<path fill-rule="evenodd" clip-rule="evenodd" d="M11.7489 0.251051C12.0837 0.585786 12.0837 1.1285 11.7489 1.46323L1.46323 11.7489C1.1285 12.0837 0.585786 12.0837 0.251051 11.7489C-0.0836838 11.4142 -0.0836838 10.8715 0.251051 10.5368L10.5368 0.251051C10.8715 -0.0836838 11.4142 -0.0836838 11.7489 0.251051Z" fill="white"/>
<path fill-rule="evenodd" clip-rule="evenodd" d="M0.251051 0.251051C0.585786 -0.0836838 1.1285 -0.0836838 1.46323 0.251051L11.7489 10.5368C12.0837 10.8715 12.0837 11.4142 11.7489 11.7489C11.4142 12.0837 10.8715 12.0837 10.5368 11.7489L0.251051 1.46323C-0.0836838 1.1285 -0.0836838 0.585786 0.251051 0.251051Z" fill="white"/>
</svg>
