<?xml version="1.0" encoding="UTF-8" standalone="no"?>
<!-- Created with Inkscape (http://www.inkscape.org/) -->

<svg
   version="1.1"
   id="svg1"
   width="730"
   height="520"
   viewBox="0 0 730 520"
   sodipodi:docname="background.svg"
   inkscape:version="1.3.2 (091e20e, 2023-11-25)"
   xml:space="preserve"
   inkscape:export-filename="background.png"
   inkscape:export-xdpi="96"
   inkscape:export-ydpi="96"
   xmlns:inkscape="http://www.inkscape.org/namespaces/inkscape"
   xmlns:sodipodi="http://sodipodi.sourceforge.net/DTD/sodipodi-0.dtd"
   xmlns="http://www.w3.org/2000/svg"
   xmlns:svg="http://www.w3.org/2000/svg"><defs
     id="defs1"><clipPath
       id="clip0_286_13274"><rect
         width="210"
         height="39"
         fill="#ffffff"
         transform="translate(0,0.0820312)"
         id="rect16"
         x="0"
         y="0" /></clipPath></defs><sodipodi:namedview
     id="namedview1"
     pagecolor="#ffffff"
     bordercolor="#666666"
     borderopacity="1.0"
     inkscape:showpageshadow="2"
     inkscape:pageopacity="0.0"
     inkscape:pagecheckerboard="0"
     inkscape:deskcolor="#d1d1d1"
     showgrid="false"
     inkscape:zoom="1.0326923"
     inkscape:cx="364.58101"
     inkscape:cy="259.51583"
     inkscape:window-width="1920"
     inkscape:window-height="1147"
     inkscape:window-x="0"
     inkscape:window-y="25"
     inkscape:window-maximized="1"
     inkscape:current-layer="g2"
     showguides="true"><sodipodi:guide
       position="-1.5400179e-09,1040"
       orientation="1040,0"
       id="guide1"
       inkscape:locked="false" /><sodipodi:guide
       position="-1.5400179e-09,-3.7547607e-06"
       orientation="0,1460"
       id="guide2"
       inkscape:locked="false" /><sodipodi:guide
       position="1460,-3.7547607e-06"
       orientation="-1040,0"
       id="guide3"
       inkscape:locked="false" /><sodipodi:guide
       position="1460,1040"
       orientation="0,-1460"
       id="guide4"
       inkscape:locked="false" /></sodipodi:namedview><g
     inkscape:groupmode="layer"
     inkscape:label="Image"
     id="g1"><g
       id="g2"
       transform="matrix(1.4834153,0,0,1.4653102,5.3808355,8.8586045)"><rect
         style="fill:#ececec;stroke-width:0;stroke-dasharray:none"
         id="rect1"
         width="490.23718"
         height="352.23029"
         x="-2.3217707"
         y="-4.7238593" /><g
         clip-path="url(#clip0_286_13274)"
         id="g16"
         transform="matrix(2.548402,0,0,2.548402,5.9128264,-0.23686894)"
         style="fill:#d40000"><path
           fill-rule="evenodd"
           clip-rule="evenodd"
           d="m 30.5695,27.9944 c 0.0598,0.1131 0.0852,0.2786 0.0191,0.3882 -0.0661,0.1096 -0.2139,0.1478 -0.3423,0.1478 H 25.405 c -0.1694,0 -0.3179,-0.1011 -0.3939,-0.2524 C 24.416,27.0977 21.7969,21.5 20.1428,18.2165 19.866,17.6674 19.6602,17.4206 19.1259,17.4199 c -0.5343,-4e-4 -0.7475,0.2185 -1.0183,0.7941 -1.6503,3.5045 -4.3054,8.8494 -4.8948,10.0657 -0.0736,0.1517 -0.2238,0.2507 -0.3921,0.2507 H 8.08855 c -0.13932,0 -0.31293,-0.0283 -0.38506,-0.1478 C 7.63171,28.2631 7.67237,28.0704 7.73743,27.947 9.11962,25.3318 14.7506,14.6799 16.37,11.6171 16.6348,11.1161 16.951,10.79 17.6359,10.79 h 2.9903 c 0.7125,0 1.0526,0.3398 1.3256,0.8621 1.6364,3.1268 7.2854,13.8201 8.6177,16.3423 z"
           fill="#ffffff"
           id="path1"
           style="fill:#d40000" /><path
           fill-rule="evenodd"
           clip-rule="evenodd"
           d="m 19.1406,0.150879 c 10.5639,0 19.1402,8.576351 19.1402,19.140221 0,10.5639 -8.5763,19.1406 -19.1402,19.1406 C 8.57671,38.4317 0,29.855 0,19.2911 0,8.72723 8.57671,0.150879 19.1406,0.150879 Z M 16.3798,8.06779 C 16.2341,7.85245 14.9675,6.16829 12.1434,6.23123 5.35726,6.38257 1.89525,13.2079 1.89383,19.2239 1.89171,27.5931 8.33415,36.5216 19.2948,36.4994 30.2724,36.4767 36.3661,27.0875 36.3661,19.2717 c 0,-6.1713 -3.3881,-13.073 -9.8892,-13.02208 -3.1392,0.02475 -4.4658,1.71668 -4.6228,1.92106 -0.2776,0.36137 -0.5442,0.58484 -1.111,0.58484 h -3.2174 c -0.6293,0 -0.8599,-0.2659 -1.1459,-0.68773 z"
           fill="#ffffff"
           id="path2"
           style="fill:#d40000" /><path
           d="m 47.2635,34.5181 v -9.87 h 4.284 c 1.0827,0 1.918,0.2706 2.506,0.812 0.588,0.5413 0.882,1.2973 0.882,2.268 0,0.9706 -0.294,1.7313 -0.882,2.282 -0.588,0.5413 -1.4233,0.812 -2.506,0.812 h -2.492 v 3.696 z m 1.792,-5.11 h 2.212 c 1.288,0 1.932,-0.56 1.932,-1.68 0,-1.1107 -0.644,-1.666 -1.932,-1.666 h -2.212 z m 9.7994,5.25 c -0.7093,0 -1.3253,-0.1447 -1.848,-0.434 -0.5227,-0.2894 -0.9287,-0.7 -1.218,-1.232 -0.2893,-0.5414 -0.434,-1.176 -0.434,-1.904 0,-0.728 0.1447,-1.358 0.434,-1.89 0.2893,-0.532 0.6953,-0.9427 1.218,-1.232 0.5227,-0.2894 1.1387,-0.434 1.848,-0.434 0.7093,0 1.3253,0.1446 1.848,0.434 0.5227,0.2893 0.9287,0.7 1.218,1.232 0.2893,0.532 0.434,1.162 0.434,1.89 0,0.728 -0.1447,1.3626 -0.434,1.904 -0.2893,0.532 -0.6953,0.9426 -1.218,1.232 -0.5227,0.2893 -1.1387,0.434 -1.848,0.434 z m 0,-1.33 c 0.5227,0 0.9427,-0.1867 1.26,-0.56 0.3173,-0.3827 0.476,-0.9427 0.476,-1.68 0,-0.7467 -0.1587,-1.302 -0.476,-1.666 -0.3173,-0.3734 -0.7373,-0.56 -1.26,-0.56 -0.5227,0 -0.9427,0.1866 -1.26,0.56 -0.3173,0.364 -0.476,0.9193 -0.476,1.666 0,0.7373 0.1587,1.2973 0.476,1.68 0.3173,0.3733 0.7373,0.56 1.26,0.56 z m 7.1844,1.33 c -0.812,0 -1.414,-0.2194 -1.806,-0.658 -0.3827,-0.448 -0.574,-1.1014 -0.574,-1.96 v -7.392 h 1.75 v 7.308 c 0,0.84 0.3547,1.26 1.064,1.26 0.1027,0 0.2053,-0.0047 0.308,-0.014 0.1027,-0.0094 0.2007,-0.028 0.294,-0.056 l -0.028,1.386 c -0.336,0.084 -0.672,0.126 -1.008,0.126 z m 4.2047,0 c -0.4947,0 -0.938,-0.0934 -1.33,-0.28 -0.3827,-0.196 -0.686,-0.4574 -0.91,-0.784 -0.2147,-0.3267 -0.322,-0.6954 -0.322,-1.106 0,-0.504 0.1307,-0.9007 0.392,-1.19 0.2613,-0.2987 0.686,-0.5134 1.274,-0.644 0.588,-0.1307 1.3767,-0.196 2.366,-0.196 h 0.49 v -0.294 c 0,-0.4667 -0.1027,-0.8027 -0.308,-1.008 -0.2053,-0.2054 -0.5507,-0.308 -1.036,-0.308 -0.3827,0 -0.7747,0.0606 -1.176,0.182 -0.4013,0.112 -0.8073,0.2893 -1.218,0.532 l -0.504,-1.19 c 0.2427,-0.168 0.5273,-0.3127 0.854,-0.434 0.336,-0.1307 0.686,-0.2287 1.05,-0.294 0.3733,-0.0747 0.7233,-0.112 1.05,-0.112 0.9987,0 1.7407,0.2333 2.226,0.7 0.4853,0.4573 0.728,1.1713 0.728,2.142 v 4.144 h -1.638 v -1.092 c -0.1587,0.3826 -0.4107,0.686 -0.756,0.91 -0.3453,0.2146 -0.756,0.322 -1.232,0.322 z m 0.364,-1.204 c 0.4573,0 0.8353,-0.1587 1.134,-0.476 0.308,-0.3174 0.462,-0.7187 0.462,-1.204 v -0.308 h -0.476 c -0.8773,0 -1.4887,0.07 -1.834,0.21 -0.336,0.1306 -0.504,0.3733 -0.504,0.728 0,0.308 0.1073,0.56 0.322,0.756 0.2147,0.196 0.5133,0.294 0.896,0.294 z m 4.8983,1.064 v -6.846 h 1.708 v 1.204 c 0.336,-0.812 1.0546,-1.26 2.156,-1.344 l 0.532,-0.042 0.112,1.484 -1.008,0.098 c -1.148,0.112 -1.722,0.7 -1.722,1.764 v 3.682 z m 5.5104,0 v -9.87 h 3.668 c 1.652,0 2.926,0.4246 3.822,1.274 0.9053,0.8493 1.358,2.0673 1.358,3.654 0,1.5773 -0.4527,2.7953 -1.358,3.654 -0.896,0.8586 -2.17,1.288 -3.822,1.288 z m 1.792,-1.484 h 1.764 c 2.2773,0 3.416,-1.1527 3.416,-3.458 0,-2.296 -1.1387,-3.444 -3.416,-3.444 h -1.764 z m 11.938,1.624 c -0.7746,0 -1.442,-0.1447 -2.002,-0.434 -0.56,-0.2894 -0.994,-0.7 -1.302,-1.232 -0.2986,-0.532 -0.448,-1.162 -0.448,-1.89 0,-0.7094 0.1447,-1.33 0.434,-1.862 0.2987,-0.532 0.7047,-0.9474 1.218,-1.246 0.5227,-0.308 1.1154,-0.462 1.778,-0.462 0.9707,0 1.736,0.308 2.296,0.924 0.5694,0.616 0.854,1.456 0.854,2.52 v 0.518 h -4.9 c 0.1307,1.2226 0.8307,1.834 2.1,1.834 0.3827,0 0.7654,-0.056 1.148,-0.168 0.3827,-0.1214 0.7327,-0.308 1.05,-0.56 l 0.49,1.176 c -0.3266,0.2706 -0.7373,0.4853 -1.232,0.644 -0.4946,0.1586 -0.9893,0.238 -1.484,0.238 z m -0.252,-5.936 c -0.5133,0 -0.9286,0.1586 -1.246,0.476 -0.3173,0.3173 -0.5086,0.7466 -0.574,1.288 h 3.444 c -0.0373,-0.5694 -0.196,-1.0034 -0.476,-1.302 -0.2706,-0.308 -0.6533,-0.462 -1.148,-0.462 z m 6.8323,5.936 c -0.579,0 -1.12,-0.07 -1.6244,-0.21 -0.504,-0.14 -0.924,-0.3407 -1.26,-0.602 l 0.448,-1.148 c 0.3454,0.2333 0.7327,0.4153 1.1624,0.546 0.429,0.1213 0.858,0.182 1.288,0.182 0.448,0 0.779,-0.0747 0.994,-0.224 0.224,-0.1587 0.336,-0.364 0.336,-0.616 0,-0.392 -0.29,-0.644 -0.868,-0.756 l -1.4,-0.266 c -1.1857,-0.224 -1.7784,-0.84 -1.7784,-1.848 0,-0.448 0.1214,-0.8354 0.364,-1.162 0.252,-0.3267 0.5974,-0.5787 1.0364,-0.756 0.438,-0.1774 0.942,-0.266 1.512,-0.266 0.485,0 0.952,0.07 1.4,0.21 0.448,0.1306 0.83,0.3313 1.148,0.602 l -0.476,1.148 c -0.271,-0.224 -0.598,-0.4014 -0.98,-0.532 -0.374,-0.1307 -0.733,-0.196 -1.078,-0.196 -0.458,0 -0.798,0.0793 -1.022,0.238 -0.215,0.1586 -0.322,0.3686 -0.322,0.63 0,0.4106 0.266,0.6626 0.798,0.756 l 1.4,0.266 c 0.606,0.112 1.064,0.3173 1.372,0.616 0.317,0.2986 0.476,0.7 0.476,1.204 0,0.6813 -0.266,1.218 -0.798,1.61 -0.532,0.3826 -1.242,0.574 -2.128,0.574 z m 4.078,-8.456 v -1.708 h 1.96 v 1.708 z m 0.112,8.316 v -6.846 h 1.75 v 6.846 z m 6.62,2.66 c -0.635,0 -1.232,-0.0747 -1.792,-0.224 -0.551,-0.14 -1.036,-0.3594 -1.456,-0.658 l 0.504,-1.218 c 0.392,0.2613 0.812,0.4526 1.26,0.574 0.448,0.1306 0.896,0.196 1.344,0.196 1.251,0 1.876,-0.602 1.876,-1.806 v -0.938 c -0.196,0.3826 -0.499,0.686 -0.91,0.91 -0.401,0.224 -0.849,0.336 -1.344,0.336 -0.616,0 -1.153,-0.14 -1.61,-0.42 -0.457,-0.2894 -0.812,-0.6907 -1.064,-1.204 -0.252,-0.5134 -0.378,-1.1107 -0.378,-1.792 0,-0.6814 0.126,-1.274 0.378,-1.778 0.252,-0.5134 0.607,-0.91 1.064,-1.19 0.457,-0.2894 0.994,-0.434 1.61,-0.434 0.513,0 0.971,0.1166 1.372,0.35 0.401,0.224 0.695,0.5273 0.882,0.91 v -1.12 h 1.708 v 6.16 c 0,1.1106 -0.294,1.946 -0.882,2.506 -0.588,0.56 -1.442,0.84 -2.562,0.84 z m -0.042,-4.158 c 0.541,0 0.971,-0.1867 1.288,-0.56 0.317,-0.3734 0.476,-0.882 0.476,-1.526 0,-0.644 -0.159,-1.148 -0.476,-1.512 -0.317,-0.3734 -0.747,-0.56 -1.288,-0.56 -0.541,0 -0.971,0.1866 -1.288,0.56 -0.317,0.364 -0.476,0.868 -0.476,1.512 0,0.644 0.159,1.1526 0.476,1.526 0.317,0.3733 0.747,0.56 1.288,0.56 z m 5.159,1.498 v -6.846 h 1.708 v 1.064 c 0.233,-0.392 0.546,-0.6907 0.938,-0.896 0.401,-0.2054 0.849,-0.308 1.344,-0.308 1.615,0 2.422,0.938 2.422,2.814 v 4.172 h -1.75 v -4.088 c 0,-0.532 -0.103,-0.9194 -0.308,-1.162 -0.196,-0.2427 -0.504,-0.364 -0.924,-0.364 -0.513,0 -0.924,0.1633 -1.232,0.49 -0.299,0.3173 -0.448,0.742 -0.448,1.274 v 3.85 z m 11.424,0.14 c -0.775,0 -1.442,-0.1447 -2.002,-0.434 -0.56,-0.2894 -0.994,-0.7 -1.302,-1.232 -0.299,-0.532 -0.448,-1.162 -0.448,-1.89 0,-0.7094 0.144,-1.33 0.434,-1.862 0.298,-0.532 0.704,-0.9474 1.218,-1.246 0.522,-0.308 1.115,-0.462 1.778,-0.462 0.97,0 1.736,0.308 2.296,0.924 0.569,0.616 0.854,1.456 0.854,2.52 v 0.518 h -4.9 c 0.13,1.2226 0.83,1.834 2.1,1.834 0.382,0 0.765,-0.056 1.148,-0.168 0.382,-0.1214 0.732,-0.308 1.05,-0.56 l 0.49,1.176 c -0.327,0.2706 -0.738,0.4853 -1.232,0.644 -0.495,0.1586 -0.99,0.238 -1.484,0.238 z m -0.252,-5.936 c -0.514,0 -0.929,0.1586 -1.246,0.476 -0.318,0.3173 -0.509,0.7466 -0.574,1.288 h 3.444 c -0.038,-0.5694 -0.196,-1.0034 -0.476,-1.302 -0.271,-0.308 -0.654,-0.462 -1.148,-0.462 z m 4.325,5.796 v -6.846 h 1.708 v 1.204 c 0.336,-0.812 1.055,-1.26 2.156,-1.344 l 0.532,-0.042 0.112,1.484 -1.008,0.098 c -1.148,0.112 -1.722,0.7 -1.722,1.764 v 3.682 z"
           fill="#ffffff"
           id="path3"
           style="fill:#d40000" /><path
           fill-rule="evenodd"
           clip-rule="evenodd"
           d="m 58.2963,16.8311 h -3.0401 c 0,0 -1.8843,-5.1499 -2.6862,-7.33768 -0.0543,-0.14906 -0.1957,-0.24767 -0.3539,-0.24767 -0.1583,-7.7e-4 -0.2997,0.09861 -0.354,0.24691 -0.8057,2.18774 -2.7014,7.33844 -2.7014,7.33844 h -2.9752 c 0,0 3.5921,-8.56381 4.53,-10.79898 0.1338,-0.31953 0.4472,-0.52821 0.7942,-0.52821 h 1.4868 c 0.3608,0 0.6865,0.21709 0.8248,0.55038 0.9418,2.2688 4.475,10.77681 4.475,10.77681 z"
           fill="#ffffff"
           id="path4"
           style="fill:#d40000" /><path
           fill-rule="evenodd"
           clip-rule="evenodd"
           d="m 114.323,16.7787 h -3.011 c 0,0 -1.869,-5.1025 -2.662,-7.27119 -0.054,-0.14677 -0.194,-0.24538 -0.351,-0.24538 -0.157,0 -0.297,0.09784 -0.351,0.24461 -0.798,2.16866 -2.676,7.27196 -2.676,7.27196 h -2.949 c 0,0 3.524,-8.40101 4.475,-10.66599 0.141,-0.33787 0.471,-0.55802 0.837,-0.55802 h 1.458 c 0.345,0 0.656,0.20792 0.788,0.52592 0.921,2.21834 4.442,10.69809 4.442,10.69809 z"
           fill="#ffffff"
           id="path5"
           style="fill:#d40000" /><path
           fill-rule="evenodd"
           clip-rule="evenodd"
           d="m 68.1987,12.557 c 0,0.6765 -0.1139,1.2919 -0.3409,1.8469 -0.2271,0.5549 -0.5519,1.0304 -0.9747,1.4271 -0.4227,0.396 -0.9326,0.7048 -1.5296,0.9273 -0.597,0.2217 -1.2605,0.3325 -1.9898,0.3325 -0.7399,0 -1.4057,-0.1108 -1.9974,-0.3325 -0.5917,-0.2225 -1.0939,-0.5313 -1.5059,-0.9273 -0.412,-0.3967 -0.7293,-0.8722 -0.9509,-1.4271 -0.2217,-0.555 -0.3333,-1.1704 -0.3333,-1.8469 V 5.56641 h 2.6953 v 6.76889 c 0,0.3066 0.0398,0.5971 0.1185,0.8715 0.0795,0.2752 0.201,0.5206 0.3646,0.7377 0.1636,0.2163 0.3807,0.3883 0.6498,0.5152 0.2698,0.1269 0.5947,0.1903 0.9754,0.1903 0.3807,0 0.7056,-0.0634 0.9746,-0.1903 0.2699,-0.1269 0.4893,-0.2989 0.6582,-0.5152 0.1689,-0.2171 0.2905,-0.4625 0.3646,-0.7377 0.0742,-0.2744 0.1109,-0.5649 0.1109,-0.8715 V 5.56641 h 2.7106 z"
           fill="#ffffff"
           id="path6"
           style="fill:#d40000" /><path
           fill-rule="evenodd"
           clip-rule="evenodd"
           d="M 83.8656,7.88107 V 16.7904 H 81.1549 V 7.88107 h -3.17 V 5.56641 h 9.0515 v 2.31466 z"
           fill="#ffffff"
           id="path7"
           style="fill:#d40000" /><path
           fill-rule="evenodd"
           clip-rule="evenodd"
           d="m 94.2915,16.7904 -2.4255,-4.455 h -0.9196 v 4.455 H 88.2832 V 5.56641 h 4.2808 c 0.5389,0 1.064,0.0558 1.577,0.16664 0.5129,0.11084 0.9723,0.29889 1.379,0.56262 0.4074,0.26449 0.7315,0.61306 0.9754,1.04648 0.2423,0.43343 0.3646,0.97235 0.3646,1.61676 0,0.76136 -0.2064,1.40039 -0.6184,1.91869 -0.412,0.5175 -0.9831,0.8875 -1.7123,1.1092 l 2.9331,4.8036 z M 94.1807,9.00706 c 0,-0.26449 -0.0558,-0.47852 -0.1666,-0.64211 C 93.9032,8.2006 93.7603,8.07371 93.586,7.98427 93.4117,7.89483 93.216,7.83368 92.9997,7.80234 92.7826,7.77023 92.5739,7.75418 92.3736,7.75418 H 90.9312 V 10.37 h 1.2834 c 0.2225,0 0.4495,-0.0183 0.6819,-0.0558 0.2324,-0.0367 0.4441,-0.1024 0.6345,-0.198 0.1903,-0.0947 0.3455,-0.23234 0.467,-0.41198 0.1216,-0.17964 0.1827,-0.41203 0.1827,-0.69716 z"
           fill="#ffffff"
           id="path8"
           style="fill:#d40000" /><path
           fill-rule="evenodd"
           clip-rule="evenodd"
           d="m 98.6367,16.7904 h 2.7263 V 5.56641 h -2.7263 z"
           fill="#ffffff"
           id="path9"
           style="fill:#d40000" /><path
           fill-rule="evenodd"
           clip-rule="evenodd"
           d="m 122.22,16.7904 -4.517,-7.33997 h -0.048 l 0.064,7.33997 h -2.632 V 5.56641 h 3.091 l 4.502,7.32389 h 0.048 l -0.063,-7.32389 h 2.631 V 16.7904 Z"
           fill="#ffffff"
           id="path10"
           style="fill:#d40000" /><path
           fill-rule="evenodd"
           clip-rule="evenodd"
           d="M 75.8127,8.18758 C 75.5497,8.00641 75.3494,7.90551 75.075,7.77785 74.6997,7.60356 74.3381,7.51641 73.9895,7.51641 c -0.1804,0 -0.3623,0.01606 -0.5473,0.0474 -0.185,0.03211 -0.3516,0.09249 -0.4992,0.18193 -0.1483,0.0902 -0.2721,0.2064 -0.373,0.34934 -0.1002,0.14295 -0.1506,0.32488 -0.1506,0.54656 0,0.19034 0.0397,0.34858 0.1192,0.47547 0.0795,0.1269 0.1957,0.23773 0.3486,0.33329 0.1537,0.09478 0.3356,0.18193 0.5473,0.26143 0.211,0.0795 0.4488,0.16129 0.7132,0.24614 0.3807,0.12693 0.7767,0.26603 1.1887,0.41963 0.412,0.1529 0.7874,0.357 1.1252,0.61 0.3387,0.2538 0.6185,0.5688 0.8409,0.9433 0.2217,0.3754 0.3325,0.8432 0.3325,1.4035 0,0.6444 -0.1192,1.2017 -0.357,1.6726 -0.2377,0.4693 -0.5572,0.8584 -0.9585,1.1642 -0.4014,0.3073 -0.8615,0.5343 -1.3791,0.6818 -0.5182,0.1483 -1.0518,0.2225 -1.6014,0.2225 -0.8027,0 -1.4096,-0.1506 -2.054,-0.3463 -0.6024,-0.1827 -1.2728,-0.4678 -1.804,-0.7889 l 0.9318,-2.2206 c 0.292,0.2737 0.8286,0.5855 1.2911,0.7851 0.5167,0.2224 1.191,0.3355 1.6351,0.3355 0.201,0 0.3967,-0.0214 0.5871,-0.0634 0.1895,-0.0428 0.3562,-0.1109 0.4991,-0.2064 0.1422,-0.0948 0.2561,-0.2217 0.341,-0.3807 0.084,-0.1582 0.1261,-0.3486 0.1261,-0.5703 0,-0.2117 -0.052,-0.3913 -0.1582,-0.5389 -0.1055,-0.1483 -0.2561,-0.2828 -0.4518,-0.4043 -0.1957,-0.1216 -0.438,-0.2324 -0.7293,-0.3326 -0.2905,-0.1009 -0.6207,-0.2087 -0.9907,-0.3256 -0.3592,-0.1162 -0.7109,-0.253 -1.0541,-0.412 -0.3432,-0.1583 -0.6498,-0.3616 -0.9196,-0.61 -0.2691,-0.2485 -0.4862,-0.5497 -0.6498,-0.9036 -0.1635,-0.35391 -0.2453,-0.78505 -0.2453,-1.29262 0,-0.62301 0.1269,-1.15657 0.3799,-1.6007 0.2538,-0.44337 0.5871,-0.80799 0.9991,-1.09389 0.412,-0.28513 0.8768,-0.49381 1.395,-0.62606 0.5176,-0.13224 1.0404,-0.19798 1.5694,-0.19798 0.6337,0 1.2812,0.11619 1.9416,0.34858 0.2691,0.09478 0.5244,0.20792 0.7667,0.3394 z"
           fill="#ffffff"
           id="path11"
           style="fill:#d40000" /><path
           fill-rule="evenodd"
           clip-rule="evenodd"
           d="m 143.147,16.8483 h -3.048 c 0,0 -1.891,-5.1644 -2.694,-7.35904 -0.055,-0.14906 -0.196,-0.24843 -0.355,-0.24843 -0.159,0 -0.301,0.0986 -0.356,0.24767 -0.807,2.1946 -2.708,7.3598 -2.708,7.3598 h -2.985 c 0,0 3.555,-8.47433 4.524,-10.78441 0.146,-0.34934 0.487,-0.57561 0.866,-0.57561 h 1.398 c 0.388,0 0.738,0.23315 0.887,0.59166 0.969,2.33378 4.471,10.76836 4.471,10.76836 z"
           fill="#ffffff"
           id="path12"
           style="fill:#d40000" /><path
           fill-rule="evenodd"
           clip-rule="evenodd"
           d="m 153.179,12.557 c 0,0.6765 -0.114,1.2919 -0.341,1.8469 -0.227,0.5549 -0.552,1.0304 -0.974,1.4271 -0.423,0.396 -0.933,0.7048 -1.53,0.9273 -0.597,0.2217 -1.261,0.3325 -1.99,0.3325 -0.74,0 -1.406,-0.1108 -1.997,-0.3325 -0.592,-0.2225 -1.094,-0.5313 -1.506,-0.9273 -0.412,-0.3967 -0.729,-0.8722 -0.951,-1.4271 -0.223,-0.555 -0.333,-1.1704 -0.333,-1.8469 V 5.56641 h 2.695 v 6.76889 c 0,0.3066 0.04,0.5971 0.118,0.8715 0.08,0.2752 0.202,0.5206 0.365,0.7377 0.164,0.2163 0.381,0.3883 0.65,0.5152 0.27,0.1269 0.595,0.1903 0.975,0.1903 0.381,0 0.705,-0.0634 0.975,-0.1903 0.27,-0.1269 0.489,-0.2989 0.658,-0.5152 0.169,-0.2171 0.291,-0.4625 0.365,-0.7377 0.074,-0.2744 0.111,-0.5649 0.111,-0.8715 V 5.56641 h 2.71 z"
           fill="#ffffff"
           id="path13"
           style="fill:#d40000" /><path
           fill-rule="evenodd"
           clip-rule="evenodd"
           d="m 165.516,11.1467 c 0,0.983 -0.183,1.8308 -0.548,2.544 -0.364,0.7132 -0.845,1.3003 -1.442,1.7597 -0.597,0.4602 -1.27,0.798 -2.021,1.0144 -0.75,0.217 -1.511,0.3256 -2.283,0.3256 h -4.185 V 5.56641 h 4.058 c 0.793,0 1.575,0.09249 2.346,0.27748 0.772,0.18499 1.459,0.49153 2.061,0.9196 0.603,0.42808 1.089,1.00139 1.459,1.71995 0.37,0.71855 0.555,1.60606 0.555,2.66326 z m -2.822,0 c 0,-0.6337 -0.103,-1.16041 -0.309,-1.57702 -0.207,-0.41814 -0.481,-0.75066 -0.824,-0.9991 -0.344,-0.24844 -0.735,-0.42502 -1.174,-0.53127 -0.438,-0.10549 -0.89,-0.15824 -1.355,-0.15824 h -1.348 v 6.56253 h 1.285 c 0.486,0 0.954,-0.055 1.403,-0.1659 0.449,-0.1116 0.845,-0.2935 1.189,-0.5473 0.343,-0.253 0.617,-0.5916 0.824,-1.0144 0.206,-0.4227 0.309,-0.9463 0.309,-1.5693 z"
           fill="#ffffff"
           id="path14"
           style="fill:#d40000" /><path
           fill-rule="evenodd"
           clip-rule="evenodd"
           d="m 167.149,16.7904 h 2.727 V 5.56641 h -2.727 z"
           fill="#ffffff"
           id="path15"
           style="fill:#d40000" /><path
           fill-rule="evenodd"
           clip-rule="evenodd"
           d="m 183.731,11.131 c 0,0.8875 -0.153,1.6993 -0.46,2.4332 -0.306,0.7346 -0.732,1.3629 -1.276,1.8866 -0.544,0.5228 -1.191,0.9272 -1.942,1.2123 -0.75,0.2859 -1.564,0.4281 -2.441,0.4281 -0.877,0 -1.688,-0.1422 -2.434,-0.4281 -0.745,-0.2851 -1.389,-0.6895 -1.933,-1.2123 -0.545,-0.5237 -0.97,-1.152 -1.276,-1.8866 -0.307,-0.7339 -0.46,-1.5457 -0.46,-2.4332 0,-0.8982 0.153,-1.70922 0.46,-2.43312 0.306,-0.72391 0.731,-1.33927 1.276,-1.84684 0.544,-0.50758 1.188,-0.8982 1.933,-1.17339 0.746,-0.27443 1.557,-0.41203 2.434,-0.41203 0.877,0 1.691,0.1376 2.441,0.41203 0.751,0.27519 1.398,0.66581 1.942,1.17339 0.544,0.50757 0.97,1.12293 1.276,1.84684 0.307,0.7239 0.46,1.53492 0.46,2.43312 z m -2.901,0 c 0,-0.4861 -0.08,-0.941 -0.238,-1.3637 -0.158,-0.42196 -0.377,-0.7843 -0.657,-1.08548 -0.281,-0.30118 -0.619,-0.53891 -1.015,-0.7132 -0.396,-0.17429 -0.832,-0.26143 -1.308,-0.26143 -0.476,0 -0.909,0.08714 -1.3,0.26143 -0.391,0.17429 -0.729,0.41202 -1.014,0.7132 -0.285,0.30118 -0.505,0.66352 -0.658,1.08548 -0.154,0.4227 -0.23,0.8776 -0.23,1.3637 0,0.5076 0.079,0.9747 0.238,1.4027 0.158,0.4281 0.378,0.795 0.657,1.1023 0.28,0.3058 0.616,0.5466 1.007,0.7209 0.391,0.1743 0.824,0.2614 1.3,0.2614 0.476,0 0.909,-0.0871 1.3,-0.2614 0.391,-0.1743 0.729,-0.4151 1.014,-0.7209 0.285,-0.3073 0.508,-0.6742 0.666,-1.1023 0.158,-0.428 0.238,-0.8951 0.238,-1.4027 z"
           fill="#ffffff"
           id="path16"
           style="fill:#d40000" /></g><text
         xml:space="preserve"
         style="font-style:normal;font-weight:normal;font-size:62.3677px;line-height:1.25;font-family:sans-serif;fill:#ec712e;fill-opacity:1;stroke:none;stroke-width:1.5592"
         x="204.76581"
         y="153.3912"
         id="text17"><tspan
           sodipodi:role="line"
           id="tspan17"
           x="204.76581"
           y="153.3912"
           style="font-weight:bold;fill:#ec712e;fill-opacity:1;stroke-width:1.5592">&gt;</tspan></text><text
         xml:space="preserve"
         style="font-style:normal;font-weight:normal;font-size:62.3677px;line-height:1.25;font-family:sans-serif;fill:#ec712e;fill-opacity:1;stroke:none;stroke-width:1.5592"
         x="204.76581"
         y="225.01398"
         id="text17-7"><tspan
           sodipodi:role="line"
           id="tspan17-4"
           x="204.76581"
           y="225.01398"
           style="font-weight:bold;fill:#ec712e;fill-opacity:1;stroke-width:1.5592">&gt;</tspan></text></g></g></svg>
